<mxfile host="app.diagrams.net" agent="Mozilla/5.0 (Windows NT 10.0; Win64; x64) AppleWebKit/537.36 (KHTML, like Gecko) Chrome/132.0.0.0 YaBrowser/25.2.0.0 Safari/537.36" version="26.0.16">
  <diagram name="Страница — 1" id="-v7gocTDy0aKS6uS8MBP">
    <mxGraphModel dx="1386" dy="783" grid="1" gridSize="10" guides="1" tooltips="1" connect="1" arrows="1" fold="1" page="1" pageScale="1" pageWidth="827" pageHeight="1169" math="0" shadow="0">
      <root>
        <mxCell id="0" />
        <mxCell id="1" parent="0" />
        <mxCell id="BTPqU4FsrwKXCjAuGrWb-1" value="Pages" style="swimlane;fontStyle=0;childLayout=stackLayout;horizontal=1;startSize=30;horizontalStack=0;resizeParent=1;resizeParentMax=0;resizeLast=0;collapsible=1;marginBottom=0;whiteSpace=wrap;html=1;" parent="1" vertex="1">
          <mxGeometry x="470" y="120" width="140" height="180" as="geometry">
            <mxRectangle x="380" y="90" width="80" height="30" as="alternateBounds" />
          </mxGeometry>
        </mxCell>
        <mxCell id="BTPqU4FsrwKXCjAuGrWb-2" value="page_id" style="text;strokeColor=none;fillColor=none;align=left;verticalAlign=middle;spacingLeft=4;spacingRight=4;overflow=hidden;points=[[0,0.5],[1,0.5]];portConstraint=eastwest;rotatable=0;whiteSpace=wrap;html=1;" parent="BTPqU4FsrwKXCjAuGrWb-1" vertex="1">
          <mxGeometry y="30" width="140" height="30" as="geometry" />
        </mxCell>
        <mxCell id="BTPqU4FsrwKXCjAuGrWb-3" value="url" style="text;strokeColor=none;fillColor=none;align=left;verticalAlign=middle;spacingLeft=4;spacingRight=4;overflow=hidden;points=[[0,0.5],[1,0.5]];portConstraint=eastwest;rotatable=0;whiteSpace=wrap;html=1;" parent="BTPqU4FsrwKXCjAuGrWb-1" vertex="1">
          <mxGeometry y="60" width="140" height="30" as="geometry" />
        </mxCell>
        <mxCell id="BTPqU4FsrwKXCjAuGrWb-4" value="title" style="text;strokeColor=none;fillColor=none;align=left;verticalAlign=middle;spacingLeft=4;spacingRight=4;overflow=hidden;points=[[0,0.5],[1,0.5]];portConstraint=eastwest;rotatable=0;whiteSpace=wrap;html=1;" parent="BTPqU4FsrwKXCjAuGrWb-1" vertex="1">
          <mxGeometry y="90" width="140" height="30" as="geometry" />
        </mxCell>
        <mxCell id="BTPqU4FsrwKXCjAuGrWb-5" value="desription" style="text;strokeColor=none;fillColor=none;align=left;verticalAlign=middle;spacingLeft=4;spacingRight=4;overflow=hidden;points=[[0,0.5],[1,0.5]];portConstraint=eastwest;rotatable=0;whiteSpace=wrap;html=1;" parent="BTPqU4FsrwKXCjAuGrWb-1" vertex="1">
          <mxGeometry y="120" width="140" height="30" as="geometry" />
        </mxCell>
        <mxCell id="BTPqU4FsrwKXCjAuGrWb-6" value="keywords" style="text;strokeColor=none;fillColor=none;align=left;verticalAlign=middle;spacingLeft=4;spacingRight=4;overflow=hidden;points=[[0,0.5],[1,0.5]];portConstraint=eastwest;rotatable=0;whiteSpace=wrap;html=1;" parent="BTPqU4FsrwKXCjAuGrWb-1" vertex="1">
          <mxGeometry y="150" width="140" height="30" as="geometry" />
        </mxCell>
        <mxCell id="BTPqU4FsrwKXCjAuGrWb-7" value="&lt;h1 style=&quot;margin-top: 0px;&quot;&gt;Simulative&lt;/h1&gt;&lt;p&gt;База учебных курсов.&lt;/p&gt;" style="text;html=1;whiteSpace=wrap;overflow=hidden;rounded=0;" parent="1" vertex="1">
          <mxGeometry x="50" y="30" width="180" height="120" as="geometry" />
        </mxCell>
        <mxCell id="BTPqU4FsrwKXCjAuGrWb-8" value="Course" style="swimlane;fontStyle=0;childLayout=stackLayout;horizontal=1;startSize=30;horizontalStack=0;resizeParent=1;resizeParentMax=0;resizeLast=0;collapsible=1;marginBottom=0;whiteSpace=wrap;html=1;direction=east;" parent="1" vertex="1">
          <mxGeometry x="50" y="120" width="140" height="150" as="geometry" />
        </mxCell>
        <mxCell id="BTPqU4FsrwKXCjAuGrWb-9" value="course_id (РК)" style="text;strokeColor=none;fillColor=none;align=left;verticalAlign=middle;spacingLeft=4;spacingRight=4;overflow=hidden;points=[[0,0.5],[1,0.5]];portConstraint=eastwest;rotatable=0;whiteSpace=wrap;html=1;" parent="BTPqU4FsrwKXCjAuGrWb-8" vertex="1">
          <mxGeometry y="30" width="140" height="30" as="geometry" />
        </mxCell>
        <mxCell id="BTPqU4FsrwKXCjAuGrWb-10" value="name" style="text;strokeColor=none;fillColor=none;align=left;verticalAlign=middle;spacingLeft=4;spacingRight=4;overflow=hidden;points=[[0,0.5],[1,0.5]];portConstraint=eastwest;rotatable=0;whiteSpace=wrap;html=1;" parent="BTPqU4FsrwKXCjAuGrWb-8" vertex="1">
          <mxGeometry y="60" width="140" height="30" as="geometry" />
        </mxCell>
        <mxCell id="BTPqU4FsrwKXCjAuGrWb-35" value="page_id" style="text;strokeColor=none;fillColor=none;align=left;verticalAlign=middle;spacingLeft=4;spacingRight=4;overflow=hidden;points=[[0,0.5],[1,0.5]];portConstraint=eastwest;rotatable=0;whiteSpace=wrap;html=1;" parent="BTPqU4FsrwKXCjAuGrWb-8" vertex="1">
          <mxGeometry y="90" width="140" height="30" as="geometry" />
        </mxCell>
        <mxCell id="BTPqU4FsrwKXCjAuGrWb-43" value="price_id" style="text;strokeColor=none;fillColor=none;align=left;verticalAlign=middle;spacingLeft=4;spacingRight=4;overflow=hidden;points=[[0,0.5],[1,0.5]];portConstraint=eastwest;rotatable=0;whiteSpace=wrap;html=1;" parent="BTPqU4FsrwKXCjAuGrWb-8" vertex="1">
          <mxGeometry y="120" width="140" height="30" as="geometry" />
        </mxCell>
        <mxCell id="BTPqU4FsrwKXCjAuGrWb-11" value="Users" style="swimlane;fontStyle=0;childLayout=stackLayout;horizontal=1;startSize=30;horizontalStack=0;resizeParent=1;resizeParentMax=0;resizeLast=0;collapsible=1;marginBottom=0;whiteSpace=wrap;html=1;direction=east;" parent="1" vertex="1">
          <mxGeometry x="50" y="320" width="140" height="120" as="geometry" />
        </mxCell>
        <mxCell id="BTPqU4FsrwKXCjAuGrWb-12" value="user_id (РК)" style="text;strokeColor=none;fillColor=none;align=left;verticalAlign=middle;spacingLeft=4;spacingRight=4;overflow=hidden;points=[[0,0.5],[1,0.5]];portConstraint=eastwest;rotatable=0;whiteSpace=wrap;html=1;" parent="BTPqU4FsrwKXCjAuGrWb-11" vertex="1">
          <mxGeometry y="30" width="140" height="30" as="geometry" />
        </mxCell>
        <mxCell id="BTPqU4FsrwKXCjAuGrWb-13" value="FIO" style="text;strokeColor=none;fillColor=none;align=left;verticalAlign=middle;spacingLeft=4;spacingRight=4;overflow=hidden;points=[[0,0.5],[1,0.5]];portConstraint=eastwest;rotatable=0;whiteSpace=wrap;html=1;" parent="BTPqU4FsrwKXCjAuGrWb-11" vertex="1">
          <mxGeometry y="60" width="140" height="30" as="geometry" />
        </mxCell>
        <mxCell id="BTPqU4FsrwKXCjAuGrWb-45" value="data_joined" style="text;strokeColor=none;fillColor=none;align=left;verticalAlign=middle;spacingLeft=4;spacingRight=4;overflow=hidden;points=[[0,0.5],[1,0.5]];portConstraint=eastwest;rotatable=0;whiteSpace=wrap;html=1;" parent="BTPqU4FsrwKXCjAuGrWb-11" vertex="1">
          <mxGeometry y="90" width="140" height="30" as="geometry" />
        </mxCell>
        <mxCell id="BTPqU4FsrwKXCjAuGrWb-14" value="Course/Users" style="swimlane;fontStyle=0;childLayout=stackLayout;horizontal=1;startSize=30;horizontalStack=0;resizeParent=1;resizeParentMax=0;resizeLast=0;collapsible=1;marginBottom=0;whiteSpace=wrap;html=1;direction=east;" parent="1" vertex="1">
          <mxGeometry x="250" y="440" width="140" height="120" as="geometry" />
        </mxCell>
        <mxCell id="BTPqU4FsrwKXCjAuGrWb-15" value="id (РК)" style="text;strokeColor=none;fillColor=none;align=left;verticalAlign=middle;spacingLeft=4;spacingRight=4;overflow=hidden;points=[[0,0.5],[1,0.5]];portConstraint=eastwest;rotatable=0;whiteSpace=wrap;html=1;" parent="BTPqU4FsrwKXCjAuGrWb-14" vertex="1">
          <mxGeometry y="30" width="140" height="30" as="geometry" />
        </mxCell>
        <mxCell id="BTPqU4FsrwKXCjAuGrWb-16" value="course_id" style="text;strokeColor=none;fillColor=none;align=left;verticalAlign=middle;spacingLeft=4;spacingRight=4;overflow=hidden;points=[[0,0.5],[1,0.5]];portConstraint=eastwest;rotatable=0;whiteSpace=wrap;html=1;" parent="BTPqU4FsrwKXCjAuGrWb-14" vertex="1">
          <mxGeometry y="60" width="140" height="30" as="geometry" />
        </mxCell>
        <mxCell id="BTPqU4FsrwKXCjAuGrWb-17" value="user_id" style="text;strokeColor=none;fillColor=none;align=left;verticalAlign=middle;spacingLeft=4;spacingRight=4;overflow=hidden;points=[[0,0.5],[1,0.5]];portConstraint=eastwest;rotatable=0;whiteSpace=wrap;html=1;" parent="BTPqU4FsrwKXCjAuGrWb-14" vertex="1">
          <mxGeometry y="90" width="140" height="30" as="geometry" />
        </mxCell>
        <mxCell id="BTPqU4FsrwKXCjAuGrWb-19" value="Glavs" style="swimlane;fontStyle=0;childLayout=stackLayout;horizontal=1;startSize=30;horizontalStack=0;resizeParent=1;resizeParentMax=0;resizeLast=0;collapsible=1;marginBottom=0;whiteSpace=wrap;html=1;direction=east;" parent="1" vertex="1">
          <mxGeometry x="250" y="120" width="140" height="300" as="geometry" />
        </mxCell>
        <mxCell id="BTPqU4FsrwKXCjAuGrWb-20" value="glava_id (РК)" style="text;strokeColor=none;fillColor=none;align=left;verticalAlign=middle;spacingLeft=4;spacingRight=4;overflow=hidden;points=[[0,0.5],[1,0.5]];portConstraint=eastwest;rotatable=0;whiteSpace=wrap;html=1;" parent="BTPqU4FsrwKXCjAuGrWb-19" vertex="1">
          <mxGeometry y="30" width="140" height="30" as="geometry" />
        </mxCell>
        <mxCell id="BTPqU4FsrwKXCjAuGrWb-32" value="" style="edgeStyle=elbowEdgeStyle;elbow=horizontal;endArrow=classic;html=1;curved=0;rounded=0;endSize=8;startSize=8;entryX=1;entryY=0.5;entryDx=0;entryDy=0;" parent="BTPqU4FsrwKXCjAuGrWb-19" target="BTPqU4FsrwKXCjAuGrWb-9" edge="1">
          <mxGeometry width="50" height="50" relative="1" as="geometry">
            <mxPoint y="110" as="sourcePoint" />
            <mxPoint x="50" y="60" as="targetPoint" />
          </mxGeometry>
        </mxCell>
        <mxCell id="BTPqU4FsrwKXCjAuGrWb-21" value="name" style="text;strokeColor=none;fillColor=none;align=left;verticalAlign=middle;spacingLeft=4;spacingRight=4;overflow=hidden;points=[[0,0.5],[1,0.5]];portConstraint=eastwest;rotatable=0;whiteSpace=wrap;html=1;" parent="BTPqU4FsrwKXCjAuGrWb-19" vertex="1">
          <mxGeometry y="60" width="140" height="30" as="geometry" />
        </mxCell>
        <mxCell id="BTPqU4FsrwKXCjAuGrWb-27" value="course_id" style="text;strokeColor=none;fillColor=none;align=left;verticalAlign=middle;spacingLeft=4;spacingRight=4;overflow=hidden;points=[[0,0.5],[1,0.5]];portConstraint=eastwest;rotatable=0;whiteSpace=wrap;html=1;" parent="BTPqU4FsrwKXCjAuGrWb-19" vertex="1">
          <mxGeometry y="90" width="140" height="30" as="geometry" />
        </mxCell>
        <mxCell id="BTPqU4FsrwKXCjAuGrWb-22" value="text_id" style="text;strokeColor=none;fillColor=none;align=left;verticalAlign=middle;spacingLeft=4;spacingRight=4;overflow=hidden;points=[[0,0.5],[1,0.5]];portConstraint=eastwest;rotatable=0;whiteSpace=wrap;html=1;" parent="BTPqU4FsrwKXCjAuGrWb-19" vertex="1">
          <mxGeometry y="120" width="140" height="30" as="geometry" />
        </mxCell>
        <mxCell id="XaR2NBmw9nqj3W3LkaDX-1" value="test_id" style="text;strokeColor=none;fillColor=none;align=left;verticalAlign=middle;spacingLeft=4;spacingRight=4;overflow=hidden;points=[[0,0.5],[1,0.5]];portConstraint=eastwest;rotatable=0;whiteSpace=wrap;html=1;" vertex="1" parent="BTPqU4FsrwKXCjAuGrWb-19">
          <mxGeometry y="150" width="140" height="30" as="geometry" />
        </mxCell>
        <mxCell id="XaR2NBmw9nqj3W3LkaDX-2" value="video_id" style="text;strokeColor=none;fillColor=none;align=left;verticalAlign=middle;spacingLeft=4;spacingRight=4;overflow=hidden;points=[[0,0.5],[1,0.5]];portConstraint=eastwest;rotatable=0;whiteSpace=wrap;html=1;" vertex="1" parent="BTPqU4FsrwKXCjAuGrWb-19">
          <mxGeometry y="180" width="140" height="30" as="geometry" />
        </mxCell>
        <mxCell id="XaR2NBmw9nqj3W3LkaDX-3" value="dialog_id" style="text;strokeColor=none;fillColor=none;align=left;verticalAlign=middle;spacingLeft=4;spacingRight=4;overflow=hidden;points=[[0,0.5],[1,0.5]];portConstraint=eastwest;rotatable=0;whiteSpace=wrap;html=1;" vertex="1" parent="BTPqU4FsrwKXCjAuGrWb-19">
          <mxGeometry y="210" width="140" height="30" as="geometry" />
        </mxCell>
        <mxCell id="BTPqU4FsrwKXCjAuGrWb-55" value="is_demo" style="text;strokeColor=none;fillColor=none;align=left;verticalAlign=middle;spacingLeft=4;spacingRight=4;overflow=hidden;points=[[0,0.5],[1,0.5]];portConstraint=eastwest;rotatable=0;whiteSpace=wrap;html=1;" parent="BTPqU4FsrwKXCjAuGrWb-19" vertex="1">
          <mxGeometry y="240" width="140" height="30" as="geometry" />
        </mxCell>
        <mxCell id="BTPqU4FsrwKXCjAuGrWb-56" value="is_full" style="text;strokeColor=none;fillColor=none;align=left;verticalAlign=middle;spacingLeft=4;spacingRight=4;overflow=hidden;points=[[0,0.5],[1,0.5]];portConstraint=eastwest;rotatable=0;whiteSpace=wrap;html=1;" parent="BTPqU4FsrwKXCjAuGrWb-19" vertex="1">
          <mxGeometry y="270" width="140" height="30" as="geometry" />
        </mxCell>
        <mxCell id="BTPqU4FsrwKXCjAuGrWb-23" value="Texts" style="swimlane;fontStyle=0;childLayout=stackLayout;horizontal=1;startSize=30;horizontalStack=0;resizeParent=1;resizeParentMax=0;resizeLast=0;collapsible=1;marginBottom=0;whiteSpace=wrap;html=1;direction=east;" parent="1" vertex="1">
          <mxGeometry x="470" y="335" width="140" height="240" as="geometry" />
        </mxCell>
        <mxCell id="BTPqU4FsrwKXCjAuGrWb-33" value="" style="edgeStyle=elbowEdgeStyle;elbow=horizontal;endArrow=classic;html=1;curved=0;rounded=0;endSize=8;startSize=8;entryX=1;entryY=0.5;entryDx=0;entryDy=0;" parent="BTPqU4FsrwKXCjAuGrWb-23" target="BTPqU4FsrwKXCjAuGrWb-22" edge="1">
          <mxGeometry width="50" height="50" relative="1" as="geometry">
            <mxPoint y="50" as="sourcePoint" />
            <mxPoint x="50" as="targetPoint" />
          </mxGeometry>
        </mxCell>
        <mxCell id="BTPqU4FsrwKXCjAuGrWb-24" value="text_id (РК)" style="text;strokeColor=none;fillColor=none;align=left;verticalAlign=middle;spacingLeft=4;spacingRight=4;overflow=hidden;points=[[0,0.5],[1,0.5]];portConstraint=eastwest;rotatable=0;whiteSpace=wrap;html=1;" parent="BTPqU4FsrwKXCjAuGrWb-23" vertex="1">
          <mxGeometry y="30" width="140" height="30" as="geometry" />
        </mxCell>
        <mxCell id="XaR2NBmw9nqj3W3LkaDX-41" value="glava_id" style="text;strokeColor=none;fillColor=none;align=left;verticalAlign=middle;spacingLeft=4;spacingRight=4;overflow=hidden;points=[[0,0.5],[1,0.5]];portConstraint=eastwest;rotatable=0;whiteSpace=wrap;html=1;" vertex="1" parent="BTPqU4FsrwKXCjAuGrWb-23">
          <mxGeometry y="60" width="140" height="30" as="geometry" />
        </mxCell>
        <mxCell id="BTPqU4FsrwKXCjAuGrWb-26" value="name" style="text;strokeColor=none;fillColor=none;align=left;verticalAlign=middle;spacingLeft=4;spacingRight=4;overflow=hidden;points=[[0,0.5],[1,0.5]];portConstraint=eastwest;rotatable=0;whiteSpace=wrap;html=1;" parent="BTPqU4FsrwKXCjAuGrWb-23" vertex="1">
          <mxGeometry y="90" width="140" height="30" as="geometry" />
        </mxCell>
        <mxCell id="BTPqU4FsrwKXCjAuGrWb-25" value="content" style="text;strokeColor=none;fillColor=none;align=left;verticalAlign=middle;spacingLeft=4;spacingRight=4;overflow=hidden;points=[[0,0.5],[1,0.5]];portConstraint=eastwest;rotatable=0;whiteSpace=wrap;html=1;" parent="BTPqU4FsrwKXCjAuGrWb-23" vertex="1">
          <mxGeometry y="120" width="140" height="30" as="geometry" />
        </mxCell>
        <mxCell id="BTPqU4FsrwKXCjAuGrWb-28" value="page_id" style="text;strokeColor=none;fillColor=none;align=left;verticalAlign=middle;spacingLeft=4;spacingRight=4;overflow=hidden;points=[[0,0.5],[1,0.5]];portConstraint=eastwest;rotatable=0;whiteSpace=wrap;html=1;" parent="BTPqU4FsrwKXCjAuGrWb-23" vertex="1">
          <mxGeometry y="150" width="140" height="30" as="geometry" />
        </mxCell>
        <mxCell id="BTPqU4FsrwKXCjAuGrWb-57" value="is_demo" style="text;strokeColor=none;fillColor=none;align=left;verticalAlign=middle;spacingLeft=4;spacingRight=4;overflow=hidden;points=[[0,0.5],[1,0.5]];portConstraint=eastwest;rotatable=0;whiteSpace=wrap;html=1;" parent="BTPqU4FsrwKXCjAuGrWb-23" vertex="1">
          <mxGeometry y="180" width="140" height="30" as="geometry" />
        </mxCell>
        <mxCell id="BTPqU4FsrwKXCjAuGrWb-58" value="is_full" style="text;strokeColor=none;fillColor=none;align=left;verticalAlign=middle;spacingLeft=4;spacingRight=4;overflow=hidden;points=[[0,0.5],[1,0.5]];portConstraint=eastwest;rotatable=0;whiteSpace=wrap;html=1;" parent="BTPqU4FsrwKXCjAuGrWb-23" vertex="1">
          <mxGeometry y="210" width="140" height="30" as="geometry" />
        </mxCell>
        <mxCell id="BTPqU4FsrwKXCjAuGrWb-30" value="" style="edgeStyle=elbowEdgeStyle;elbow=horizontal;endArrow=classic;html=1;curved=0;rounded=0;endSize=8;startSize=8;entryX=0;entryY=0.5;entryDx=0;entryDy=0;" parent="1" target="BTPqU4FsrwKXCjAuGrWb-17" edge="1" source="BTPqU4FsrwKXCjAuGrWb-12">
          <mxGeometry width="50" height="50" relative="1" as="geometry">
            <mxPoint x="190" y="430" as="sourcePoint" />
            <mxPoint x="240" y="480" as="targetPoint" />
          </mxGeometry>
        </mxCell>
        <mxCell id="BTPqU4FsrwKXCjAuGrWb-31" value="" style="edgeStyle=elbowEdgeStyle;elbow=horizontal;endArrow=classic;html=1;curved=0;rounded=0;endSize=8;startSize=8;entryX=0;entryY=0.5;entryDx=0;entryDy=0;" parent="1" target="BTPqU4FsrwKXCjAuGrWb-16" edge="1">
          <mxGeometry width="50" height="50" relative="1" as="geometry">
            <mxPoint x="190" y="240" as="sourcePoint" />
            <mxPoint x="240" y="190" as="targetPoint" />
          </mxGeometry>
        </mxCell>
        <mxCell id="BTPqU4FsrwKXCjAuGrWb-34" value="" style="edgeStyle=elbowEdgeStyle;elbow=horizontal;endArrow=classic;html=1;curved=0;rounded=0;endSize=8;startSize=8;entryX=1;entryY=0.5;entryDx=0;entryDy=0;exitX=1;exitY=0.5;exitDx=0;exitDy=0;" parent="1" target="BTPqU4FsrwKXCjAuGrWb-2" edge="1" source="BTPqU4FsrwKXCjAuGrWb-28">
          <mxGeometry width="50" height="50" relative="1" as="geometry">
            <mxPoint x="600" y="520" as="sourcePoint" />
            <mxPoint x="650" y="470" as="targetPoint" />
            <Array as="points">
              <mxPoint x="690" y="360" />
            </Array>
          </mxGeometry>
        </mxCell>
        <mxCell id="BTPqU4FsrwKXCjAuGrWb-36" value="PurchasedCourse" style="swimlane;fontStyle=0;childLayout=stackLayout;horizontal=1;startSize=30;horizontalStack=0;resizeParent=1;resizeParentMax=0;resizeLast=0;collapsible=1;marginBottom=0;whiteSpace=wrap;html=1;direction=east;" parent="1" vertex="1">
          <mxGeometry x="50" y="480" width="140" height="150" as="geometry" />
        </mxCell>
        <mxCell id="BTPqU4FsrwKXCjAuGrWb-37" value="price_id (РК)" style="text;strokeColor=none;fillColor=none;align=left;verticalAlign=middle;spacingLeft=4;spacingRight=4;overflow=hidden;points=[[0,0.5],[1,0.5]];portConstraint=eastwest;rotatable=0;whiteSpace=wrap;html=1;" parent="BTPqU4FsrwKXCjAuGrWb-36" vertex="1">
          <mxGeometry y="30" width="140" height="30" as="geometry" />
        </mxCell>
        <mxCell id="BTPqU4FsrwKXCjAuGrWb-38" value="course_id" style="text;strokeColor=none;fillColor=none;align=left;verticalAlign=middle;spacingLeft=4;spacingRight=4;overflow=hidden;points=[[0,0.5],[1,0.5]];portConstraint=eastwest;rotatable=0;whiteSpace=wrap;html=1;" parent="BTPqU4FsrwKXCjAuGrWb-36" vertex="1">
          <mxGeometry y="60" width="140" height="30" as="geometry" />
        </mxCell>
        <mxCell id="BTPqU4FsrwKXCjAuGrWb-41" value="value" style="text;strokeColor=none;fillColor=none;align=left;verticalAlign=middle;spacingLeft=4;spacingRight=4;overflow=hidden;points=[[0,0.5],[1,0.5]];portConstraint=eastwest;rotatable=0;whiteSpace=wrap;html=1;" parent="BTPqU4FsrwKXCjAuGrWb-36" vertex="1">
          <mxGeometry y="90" width="140" height="30" as="geometry" />
        </mxCell>
        <mxCell id="BTPqU4FsrwKXCjAuGrWb-44" value="created_at" style="text;strokeColor=none;fillColor=none;align=left;verticalAlign=middle;spacingLeft=4;spacingRight=4;overflow=hidden;points=[[0,0.5],[1,0.5]];portConstraint=eastwest;rotatable=0;whiteSpace=wrap;html=1;" parent="BTPqU4FsrwKXCjAuGrWb-36" vertex="1">
          <mxGeometry y="120" width="140" height="30" as="geometry" />
        </mxCell>
        <mxCell id="BTPqU4FsrwKXCjAuGrWb-46" value="" style="edgeStyle=elbowEdgeStyle;elbow=horizontal;endArrow=classic;html=1;curved=0;rounded=0;endSize=8;startSize=8;exitX=0;exitY=0.5;exitDx=0;exitDy=0;entryX=0;entryY=0.5;entryDx=0;entryDy=0;" parent="1" source="BTPqU4FsrwKXCjAuGrWb-43" target="BTPqU4FsrwKXCjAuGrWb-37" edge="1">
          <mxGeometry width="50" height="50" relative="1" as="geometry">
            <mxPoint x="50" y="370" as="sourcePoint" />
            <mxPoint x="40" y="590" as="targetPoint" />
            <Array as="points">
              <mxPoint x="20" y="480" />
            </Array>
          </mxGeometry>
        </mxCell>
        <mxCell id="XaR2NBmw9nqj3W3LkaDX-4" value="Video" style="swimlane;fontStyle=0;childLayout=stackLayout;horizontal=1;startSize=30;horizontalStack=0;resizeParent=1;resizeParentMax=0;resizeLast=0;collapsible=1;marginBottom=0;whiteSpace=wrap;html=1;direction=east;" vertex="1" parent="1">
          <mxGeometry x="470" y="600" width="140" height="240" as="geometry" />
        </mxCell>
        <mxCell id="XaR2NBmw9nqj3W3LkaDX-17" value="" style="edgeStyle=elbowEdgeStyle;elbow=horizontal;endArrow=classic;html=1;curved=0;rounded=0;endSize=8;startSize=8;entryX=1;entryY=0.5;entryDx=0;entryDy=0;" edge="1" parent="XaR2NBmw9nqj3W3LkaDX-4" target="XaR2NBmw9nqj3W3LkaDX-2">
          <mxGeometry width="50" height="50" relative="1" as="geometry">
            <mxPoint y="50" as="sourcePoint" />
            <mxPoint x="50" as="targetPoint" />
          </mxGeometry>
        </mxCell>
        <mxCell id="XaR2NBmw9nqj3W3LkaDX-6" value="video_id (РК)" style="text;strokeColor=none;fillColor=none;align=left;verticalAlign=middle;spacingLeft=4;spacingRight=4;overflow=hidden;points=[[0,0.5],[1,0.5]];portConstraint=eastwest;rotatable=0;whiteSpace=wrap;html=1;" vertex="1" parent="XaR2NBmw9nqj3W3LkaDX-4">
          <mxGeometry y="30" width="140" height="30" as="geometry" />
        </mxCell>
        <mxCell id="XaR2NBmw9nqj3W3LkaDX-42" value="glava_id" style="text;strokeColor=none;fillColor=none;align=left;verticalAlign=middle;spacingLeft=4;spacingRight=4;overflow=hidden;points=[[0,0.5],[1,0.5]];portConstraint=eastwest;rotatable=0;whiteSpace=wrap;html=1;" vertex="1" parent="XaR2NBmw9nqj3W3LkaDX-4">
          <mxGeometry y="60" width="140" height="30" as="geometry" />
        </mxCell>
        <mxCell id="XaR2NBmw9nqj3W3LkaDX-7" value="name" style="text;strokeColor=none;fillColor=none;align=left;verticalAlign=middle;spacingLeft=4;spacingRight=4;overflow=hidden;points=[[0,0.5],[1,0.5]];portConstraint=eastwest;rotatable=0;whiteSpace=wrap;html=1;" vertex="1" parent="XaR2NBmw9nqj3W3LkaDX-4">
          <mxGeometry y="90" width="140" height="30" as="geometry" />
        </mxCell>
        <mxCell id="XaR2NBmw9nqj3W3LkaDX-8" value="content" style="text;strokeColor=none;fillColor=none;align=left;verticalAlign=middle;spacingLeft=4;spacingRight=4;overflow=hidden;points=[[0,0.5],[1,0.5]];portConstraint=eastwest;rotatable=0;whiteSpace=wrap;html=1;" vertex="1" parent="XaR2NBmw9nqj3W3LkaDX-4">
          <mxGeometry y="120" width="140" height="30" as="geometry" />
        </mxCell>
        <mxCell id="XaR2NBmw9nqj3W3LkaDX-9" value="page_id" style="text;strokeColor=none;fillColor=none;align=left;verticalAlign=middle;spacingLeft=4;spacingRight=4;overflow=hidden;points=[[0,0.5],[1,0.5]];portConstraint=eastwest;rotatable=0;whiteSpace=wrap;html=1;" vertex="1" parent="XaR2NBmw9nqj3W3LkaDX-4">
          <mxGeometry y="150" width="140" height="30" as="geometry" />
        </mxCell>
        <mxCell id="XaR2NBmw9nqj3W3LkaDX-10" value="is_demo" style="text;strokeColor=none;fillColor=none;align=left;verticalAlign=middle;spacingLeft=4;spacingRight=4;overflow=hidden;points=[[0,0.5],[1,0.5]];portConstraint=eastwest;rotatable=0;whiteSpace=wrap;html=1;" vertex="1" parent="XaR2NBmw9nqj3W3LkaDX-4">
          <mxGeometry y="180" width="140" height="30" as="geometry" />
        </mxCell>
        <mxCell id="XaR2NBmw9nqj3W3LkaDX-11" value="is_full" style="text;strokeColor=none;fillColor=none;align=left;verticalAlign=middle;spacingLeft=4;spacingRight=4;overflow=hidden;points=[[0,0.5],[1,0.5]];portConstraint=eastwest;rotatable=0;whiteSpace=wrap;html=1;" vertex="1" parent="XaR2NBmw9nqj3W3LkaDX-4">
          <mxGeometry y="210" width="140" height="30" as="geometry" />
        </mxCell>
        <mxCell id="XaR2NBmw9nqj3W3LkaDX-13" value="Tests" style="swimlane;fontStyle=0;childLayout=stackLayout;horizontal=1;startSize=30;horizontalStack=0;resizeParent=1;resizeParentMax=0;resizeLast=0;collapsible=1;marginBottom=0;whiteSpace=wrap;html=1;direction=east;" vertex="1" parent="1">
          <mxGeometry x="250" y="600" width="140" height="270" as="geometry" />
        </mxCell>
        <mxCell id="XaR2NBmw9nqj3W3LkaDX-14" value="test_id (РК)" style="text;strokeColor=none;fillColor=none;align=left;verticalAlign=middle;spacingLeft=4;spacingRight=4;overflow=hidden;points=[[0,0.5],[1,0.5]];portConstraint=eastwest;rotatable=0;whiteSpace=wrap;html=1;" vertex="1" parent="XaR2NBmw9nqj3W3LkaDX-13">
          <mxGeometry y="30" width="140" height="30" as="geometry" />
        </mxCell>
        <mxCell id="XaR2NBmw9nqj3W3LkaDX-44" value="glava_id" style="text;strokeColor=none;fillColor=none;align=left;verticalAlign=middle;spacingLeft=4;spacingRight=4;overflow=hidden;points=[[0,0.5],[1,0.5]];portConstraint=eastwest;rotatable=0;whiteSpace=wrap;html=1;" vertex="1" parent="XaR2NBmw9nqj3W3LkaDX-13">
          <mxGeometry y="60" width="140" height="30" as="geometry" />
        </mxCell>
        <mxCell id="XaR2NBmw9nqj3W3LkaDX-46" value="name" style="text;strokeColor=none;fillColor=none;align=left;verticalAlign=middle;spacingLeft=4;spacingRight=4;overflow=hidden;points=[[0,0.5],[1,0.5]];portConstraint=eastwest;rotatable=0;whiteSpace=wrap;html=1;" vertex="1" parent="XaR2NBmw9nqj3W3LkaDX-13">
          <mxGeometry y="90" width="140" height="30" as="geometry" />
        </mxCell>
        <mxCell id="XaR2NBmw9nqj3W3LkaDX-15" value="question" style="text;strokeColor=none;fillColor=none;align=left;verticalAlign=middle;spacingLeft=4;spacingRight=4;overflow=hidden;points=[[0,0.5],[1,0.5]];portConstraint=eastwest;rotatable=0;whiteSpace=wrap;html=1;" vertex="1" parent="XaR2NBmw9nqj3W3LkaDX-13">
          <mxGeometry y="120" width="140" height="30" as="geometry" />
        </mxCell>
        <mxCell id="XaR2NBmw9nqj3W3LkaDX-16" value="answer_id" style="text;strokeColor=none;fillColor=none;align=left;verticalAlign=middle;spacingLeft=4;spacingRight=4;overflow=hidden;points=[[0,0.5],[1,0.5]];portConstraint=eastwest;rotatable=0;whiteSpace=wrap;html=1;" vertex="1" parent="XaR2NBmw9nqj3W3LkaDX-13">
          <mxGeometry y="150" width="140" height="30" as="geometry" />
        </mxCell>
        <mxCell id="XaR2NBmw9nqj3W3LkaDX-19" value="page_id" style="text;strokeColor=none;fillColor=none;align=left;verticalAlign=middle;spacingLeft=4;spacingRight=4;overflow=hidden;points=[[0,0.5],[1,0.5]];portConstraint=eastwest;rotatable=0;whiteSpace=wrap;html=1;" vertex="1" parent="XaR2NBmw9nqj3W3LkaDX-13">
          <mxGeometry y="180" width="140" height="30" as="geometry" />
        </mxCell>
        <mxCell id="XaR2NBmw9nqj3W3LkaDX-47" value="is_demo" style="text;strokeColor=none;fillColor=none;align=left;verticalAlign=middle;spacingLeft=4;spacingRight=4;overflow=hidden;points=[[0,0.5],[1,0.5]];portConstraint=eastwest;rotatable=0;whiteSpace=wrap;html=1;" vertex="1" parent="XaR2NBmw9nqj3W3LkaDX-13">
          <mxGeometry y="210" width="140" height="30" as="geometry" />
        </mxCell>
        <mxCell id="XaR2NBmw9nqj3W3LkaDX-48" value="is_full" style="text;strokeColor=none;fillColor=none;align=left;verticalAlign=middle;spacingLeft=4;spacingRight=4;overflow=hidden;points=[[0,0.5],[1,0.5]];portConstraint=eastwest;rotatable=0;whiteSpace=wrap;html=1;" vertex="1" parent="XaR2NBmw9nqj3W3LkaDX-13">
          <mxGeometry y="240" width="140" height="30" as="geometry" />
        </mxCell>
        <mxCell id="XaR2NBmw9nqj3W3LkaDX-18" value="" style="edgeStyle=elbowEdgeStyle;elbow=horizontal;endArrow=classic;html=1;curved=0;rounded=0;endSize=8;startSize=8;entryX=1;entryY=0.2;entryDx=0;entryDy=0;entryPerimeter=0;" edge="1" parent="1" source="XaR2NBmw9nqj3W3LkaDX-14" target="XaR2NBmw9nqj3W3LkaDX-1">
          <mxGeometry width="50" height="50" relative="1" as="geometry">
            <mxPoint x="390" y="800" as="sourcePoint" />
            <mxPoint x="394" y="279" as="targetPoint" />
            <Array as="points">
              <mxPoint x="420" y="540" />
            </Array>
          </mxGeometry>
        </mxCell>
        <mxCell id="XaR2NBmw9nqj3W3LkaDX-20" value="Answers" style="swimlane;fontStyle=0;childLayout=stackLayout;horizontal=1;startSize=30;horizontalStack=0;resizeParent=1;resizeParentMax=0;resizeLast=0;collapsible=1;marginBottom=0;whiteSpace=wrap;html=1;direction=east;" vertex="1" parent="1">
          <mxGeometry x="50" y="680" width="140" height="210" as="geometry" />
        </mxCell>
        <mxCell id="XaR2NBmw9nqj3W3LkaDX-21" value="answer_id (РК)" style="text;strokeColor=none;fillColor=none;align=left;verticalAlign=middle;spacingLeft=4;spacingRight=4;overflow=hidden;points=[[0,0.5],[1,0.5]];portConstraint=eastwest;rotatable=0;whiteSpace=wrap;html=1;" vertex="1" parent="XaR2NBmw9nqj3W3LkaDX-20">
          <mxGeometry y="30" width="140" height="30" as="geometry" />
        </mxCell>
        <mxCell id="XaR2NBmw9nqj3W3LkaDX-22" value="test_id" style="text;strokeColor=none;fillColor=none;align=left;verticalAlign=middle;spacingLeft=4;spacingRight=4;overflow=hidden;points=[[0,0.5],[1,0.5]];portConstraint=eastwest;rotatable=0;whiteSpace=wrap;html=1;" vertex="1" parent="XaR2NBmw9nqj3W3LkaDX-20">
          <mxGeometry y="60" width="140" height="30" as="geometry" />
        </mxCell>
        <mxCell id="XaR2NBmw9nqj3W3LkaDX-32" value="page_id" style="text;strokeColor=none;fillColor=none;align=left;verticalAlign=middle;spacingLeft=4;spacingRight=4;overflow=hidden;points=[[0,0.5],[1,0.5]];portConstraint=eastwest;rotatable=0;whiteSpace=wrap;html=1;" vertex="1" parent="XaR2NBmw9nqj3W3LkaDX-20">
          <mxGeometry y="90" width="140" height="30" as="geometry" />
        </mxCell>
        <mxCell id="XaR2NBmw9nqj3W3LkaDX-23" value="user_id" style="text;strokeColor=none;fillColor=none;align=left;verticalAlign=middle;spacingLeft=4;spacingRight=4;overflow=hidden;points=[[0,0.5],[1,0.5]];portConstraint=eastwest;rotatable=0;whiteSpace=wrap;html=1;" vertex="1" parent="XaR2NBmw9nqj3W3LkaDX-20">
          <mxGeometry y="120" width="140" height="30" as="geometry" />
        </mxCell>
        <mxCell id="XaR2NBmw9nqj3W3LkaDX-26" value="answer" style="text;strokeColor=none;fillColor=none;align=left;verticalAlign=middle;spacingLeft=4;spacingRight=4;overflow=hidden;points=[[0,0.5],[1,0.5]];portConstraint=eastwest;rotatable=0;whiteSpace=wrap;html=1;" vertex="1" parent="XaR2NBmw9nqj3W3LkaDX-20">
          <mxGeometry y="150" width="140" height="30" as="geometry" />
        </mxCell>
        <mxCell id="XaR2NBmw9nqj3W3LkaDX-31" value="is_true" style="text;strokeColor=none;fillColor=none;align=left;verticalAlign=middle;spacingLeft=4;spacingRight=4;overflow=hidden;points=[[0,0.5],[1,0.5]];portConstraint=eastwest;rotatable=0;whiteSpace=wrap;html=1;" vertex="1" parent="XaR2NBmw9nqj3W3LkaDX-20">
          <mxGeometry y="180" width="140" height="30" as="geometry" />
        </mxCell>
        <mxCell id="XaR2NBmw9nqj3W3LkaDX-25" value="" style="edgeStyle=elbowEdgeStyle;elbow=horizontal;endArrow=classic;html=1;curved=0;rounded=0;endSize=8;startSize=8;entryX=0;entryY=0.5;entryDx=0;entryDy=0;" edge="1" parent="1" source="XaR2NBmw9nqj3W3LkaDX-21" target="XaR2NBmw9nqj3W3LkaDX-16">
          <mxGeometry width="50" height="50" relative="1" as="geometry">
            <mxPoint x="190" y="850" as="sourcePoint" />
            <mxPoint x="240" y="800" as="targetPoint" />
          </mxGeometry>
        </mxCell>
        <mxCell id="XaR2NBmw9nqj3W3LkaDX-33" value="Dialogs" style="swimlane;fontStyle=0;childLayout=stackLayout;horizontal=1;startSize=30;horizontalStack=0;resizeParent=1;resizeParentMax=0;resizeLast=0;collapsible=1;marginBottom=0;whiteSpace=wrap;html=1;direction=east;" vertex="1" parent="1">
          <mxGeometry x="470" y="880" width="140" height="240" as="geometry" />
        </mxCell>
        <mxCell id="XaR2NBmw9nqj3W3LkaDX-45" value="" style="edgeStyle=elbowEdgeStyle;elbow=horizontal;endArrow=classic;html=1;curved=0;rounded=0;endSize=8;startSize=8;entryX=1;entryY=0.5;entryDx=0;entryDy=0;" edge="1" parent="XaR2NBmw9nqj3W3LkaDX-33" target="XaR2NBmw9nqj3W3LkaDX-3">
          <mxGeometry width="50" height="50" relative="1" as="geometry">
            <mxPoint y="50" as="sourcePoint" />
            <mxPoint x="50" as="targetPoint" />
          </mxGeometry>
        </mxCell>
        <mxCell id="XaR2NBmw9nqj3W3LkaDX-35" value="dialog_id (РК)" style="text;strokeColor=none;fillColor=none;align=left;verticalAlign=middle;spacingLeft=4;spacingRight=4;overflow=hidden;points=[[0,0.5],[1,0.5]];portConstraint=eastwest;rotatable=0;whiteSpace=wrap;html=1;" vertex="1" parent="XaR2NBmw9nqj3W3LkaDX-33">
          <mxGeometry y="30" width="140" height="30" as="geometry" />
        </mxCell>
        <mxCell id="XaR2NBmw9nqj3W3LkaDX-43" value="glava_id" style="text;strokeColor=none;fillColor=none;align=left;verticalAlign=middle;spacingLeft=4;spacingRight=4;overflow=hidden;points=[[0,0.5],[1,0.5]];portConstraint=eastwest;rotatable=0;whiteSpace=wrap;html=1;" vertex="1" parent="XaR2NBmw9nqj3W3LkaDX-33">
          <mxGeometry y="60" width="140" height="30" as="geometry" />
        </mxCell>
        <mxCell id="XaR2NBmw9nqj3W3LkaDX-49" value="type" style="text;strokeColor=none;fillColor=none;align=left;verticalAlign=middle;spacingLeft=4;spacingRight=4;overflow=hidden;points=[[0,0.5],[1,0.5]];portConstraint=eastwest;rotatable=0;whiteSpace=wrap;html=1;" vertex="1" parent="XaR2NBmw9nqj3W3LkaDX-33">
          <mxGeometry y="90" width="140" height="30" as="geometry" />
        </mxCell>
        <mxCell id="XaR2NBmw9nqj3W3LkaDX-50" value="user_id" style="text;strokeColor=none;fillColor=none;align=left;verticalAlign=middle;spacingLeft=4;spacingRight=4;overflow=hidden;points=[[0,0.5],[1,0.5]];portConstraint=eastwest;rotatable=0;whiteSpace=wrap;html=1;" vertex="1" parent="XaR2NBmw9nqj3W3LkaDX-33">
          <mxGeometry y="120" width="140" height="30" as="geometry" />
        </mxCell>
        <mxCell id="XaR2NBmw9nqj3W3LkaDX-38" value="page_id" style="text;strokeColor=none;fillColor=none;align=left;verticalAlign=middle;spacingLeft=4;spacingRight=4;overflow=hidden;points=[[0,0.5],[1,0.5]];portConstraint=eastwest;rotatable=0;whiteSpace=wrap;html=1;" vertex="1" parent="XaR2NBmw9nqj3W3LkaDX-33">
          <mxGeometry y="150" width="140" height="30" as="geometry" />
        </mxCell>
        <mxCell id="XaR2NBmw9nqj3W3LkaDX-39" value="is_demo" style="text;strokeColor=none;fillColor=none;align=left;verticalAlign=middle;spacingLeft=4;spacingRight=4;overflow=hidden;points=[[0,0.5],[1,0.5]];portConstraint=eastwest;rotatable=0;whiteSpace=wrap;html=1;" vertex="1" parent="XaR2NBmw9nqj3W3LkaDX-33">
          <mxGeometry y="180" width="140" height="30" as="geometry" />
        </mxCell>
        <mxCell id="XaR2NBmw9nqj3W3LkaDX-40" value="is_full" style="text;strokeColor=none;fillColor=none;align=left;verticalAlign=middle;spacingLeft=4;spacingRight=4;overflow=hidden;points=[[0,0.5],[1,0.5]];portConstraint=eastwest;rotatable=0;whiteSpace=wrap;html=1;" vertex="1" parent="XaR2NBmw9nqj3W3LkaDX-33">
          <mxGeometry y="210" width="140" height="30" as="geometry" />
        </mxCell>
        <mxCell id="XaR2NBmw9nqj3W3LkaDX-51" value="Описание&amp;nbsp;&lt;div&gt;таблиц&lt;/div&gt;" style="text;strokeColor=none;fillColor=none;html=1;fontSize=24;fontStyle=1;verticalAlign=middle;align=center;" vertex="1" parent="1">
          <mxGeometry x="50" y="1170" width="100" height="40" as="geometry" />
        </mxCell>
        <mxCell id="XaR2NBmw9nqj3W3LkaDX-54" value="Users" style="shape=table;startSize=30;container=1;collapsible=0;childLayout=tableLayout;fixedRows=1;rowLines=0;fontStyle=0;strokeColor=default;fontSize=16;" vertex="1" parent="1">
          <mxGeometry x="30" y="1250" width="180" height="170" as="geometry" />
        </mxCell>
        <mxCell id="XaR2NBmw9nqj3W3LkaDX-55" value="" style="shape=tableRow;horizontal=0;startSize=0;swimlaneHead=0;swimlaneBody=0;top=0;left=0;bottom=0;right=0;collapsible=0;dropTarget=0;fillColor=none;points=[[0,0.5],[1,0.5]];portConstraint=eastwest;strokeColor=inherit;fontSize=16;" vertex="1" parent="XaR2NBmw9nqj3W3LkaDX-54">
          <mxGeometry y="30" width="180" height="30" as="geometry" />
        </mxCell>
        <mxCell id="XaR2NBmw9nqj3W3LkaDX-56" value="1" style="shape=partialRectangle;html=1;whiteSpace=wrap;connectable=0;fillColor=none;top=0;left=0;bottom=0;right=0;overflow=hidden;pointerEvents=1;strokeColor=inherit;fontSize=16;" vertex="1" parent="XaR2NBmw9nqj3W3LkaDX-55">
          <mxGeometry width="40" height="30" as="geometry">
            <mxRectangle width="40" height="30" as="alternateBounds" />
          </mxGeometry>
        </mxCell>
        <mxCell id="XaR2NBmw9nqj3W3LkaDX-57" value="ФИО" style="shape=partialRectangle;html=1;whiteSpace=wrap;connectable=0;fillColor=none;top=0;left=0;bottom=0;right=0;align=left;spacingLeft=6;overflow=hidden;strokeColor=inherit;fontSize=16;" vertex="1" parent="XaR2NBmw9nqj3W3LkaDX-55">
          <mxGeometry x="40" width="140" height="30" as="geometry">
            <mxRectangle width="140" height="30" as="alternateBounds" />
          </mxGeometry>
        </mxCell>
        <mxCell id="XaR2NBmw9nqj3W3LkaDX-58" value="" style="shape=tableRow;horizontal=0;startSize=0;swimlaneHead=0;swimlaneBody=0;top=0;left=0;bottom=0;right=0;collapsible=0;dropTarget=0;fillColor=none;points=[[0,0.5],[1,0.5]];portConstraint=eastwest;strokeColor=inherit;fontSize=16;" vertex="1" parent="XaR2NBmw9nqj3W3LkaDX-54">
          <mxGeometry y="60" width="180" height="80" as="geometry" />
        </mxCell>
        <mxCell id="XaR2NBmw9nqj3W3LkaDX-59" value="2" style="shape=partialRectangle;html=1;whiteSpace=wrap;connectable=0;fillColor=none;top=0;left=0;bottom=0;right=0;overflow=hidden;strokeColor=inherit;fontSize=16;" vertex="1" parent="XaR2NBmw9nqj3W3LkaDX-58">
          <mxGeometry width="40" height="80" as="geometry">
            <mxRectangle width="40" height="80" as="alternateBounds" />
          </mxGeometry>
        </mxCell>
        <mxCell id="XaR2NBmw9nqj3W3LkaDX-60" value="Дата регистрации на курс (необязательное)" style="shape=partialRectangle;html=1;whiteSpace=wrap;connectable=0;fillColor=none;top=0;left=0;bottom=0;right=0;align=left;spacingLeft=6;overflow=hidden;strokeColor=inherit;fontSize=16;" vertex="1" parent="XaR2NBmw9nqj3W3LkaDX-58">
          <mxGeometry x="40" width="140" height="80" as="geometry">
            <mxRectangle width="140" height="80" as="alternateBounds" />
          </mxGeometry>
        </mxCell>
        <mxCell id="XaR2NBmw9nqj3W3LkaDX-61" value="" style="shape=tableRow;horizontal=0;startSize=0;swimlaneHead=0;swimlaneBody=0;top=0;left=0;bottom=0;right=0;collapsible=0;dropTarget=0;fillColor=none;points=[[0,0.5],[1,0.5]];portConstraint=eastwest;strokeColor=inherit;fontSize=16;" vertex="1" parent="XaR2NBmw9nqj3W3LkaDX-54">
          <mxGeometry y="140" width="180" height="30" as="geometry" />
        </mxCell>
        <mxCell id="XaR2NBmw9nqj3W3LkaDX-62" value="" style="shape=partialRectangle;html=1;whiteSpace=wrap;connectable=0;fillColor=none;top=0;left=0;bottom=0;right=0;overflow=hidden;strokeColor=inherit;fontSize=16;" vertex="1" parent="XaR2NBmw9nqj3W3LkaDX-61">
          <mxGeometry width="40" height="30" as="geometry">
            <mxRectangle width="40" height="30" as="alternateBounds" />
          </mxGeometry>
        </mxCell>
        <mxCell id="XaR2NBmw9nqj3W3LkaDX-63" value="" style="shape=partialRectangle;html=1;whiteSpace=wrap;connectable=0;fillColor=none;top=0;left=0;bottom=0;right=0;align=left;spacingLeft=6;overflow=hidden;strokeColor=inherit;fontSize=16;" vertex="1" parent="XaR2NBmw9nqj3W3LkaDX-61">
          <mxGeometry x="40" width="140" height="30" as="geometry">
            <mxRectangle width="140" height="30" as="alternateBounds" />
          </mxGeometry>
        </mxCell>
        <mxCell id="XaR2NBmw9nqj3W3LkaDX-64" value="Courses" style="shape=table;startSize=30;container=1;collapsible=0;childLayout=tableLayout;fixedRows=1;rowLines=0;fontStyle=0;strokeColor=default;fontSize=16;" vertex="1" parent="1">
          <mxGeometry x="30" y="1470" width="180" height="120" as="geometry" />
        </mxCell>
        <mxCell id="XaR2NBmw9nqj3W3LkaDX-65" value="" style="shape=tableRow;horizontal=0;startSize=0;swimlaneHead=0;swimlaneBody=0;top=0;left=0;bottom=0;right=0;collapsible=0;dropTarget=0;fillColor=none;points=[[0,0.5],[1,0.5]];portConstraint=eastwest;strokeColor=inherit;fontSize=16;" vertex="1" parent="XaR2NBmw9nqj3W3LkaDX-64">
          <mxGeometry y="30" width="180" height="30" as="geometry" />
        </mxCell>
        <mxCell id="XaR2NBmw9nqj3W3LkaDX-66" value="1" style="shape=partialRectangle;html=1;whiteSpace=wrap;connectable=0;fillColor=none;top=0;left=0;bottom=0;right=0;overflow=hidden;pointerEvents=1;strokeColor=inherit;fontSize=16;" vertex="1" parent="XaR2NBmw9nqj3W3LkaDX-65">
          <mxGeometry width="40" height="30" as="geometry">
            <mxRectangle width="40" height="30" as="alternateBounds" />
          </mxGeometry>
        </mxCell>
        <mxCell id="XaR2NBmw9nqj3W3LkaDX-67" value="Название" style="shape=partialRectangle;html=1;whiteSpace=wrap;connectable=0;fillColor=none;top=0;left=0;bottom=0;right=0;align=left;spacingLeft=6;overflow=hidden;strokeColor=inherit;fontSize=16;" vertex="1" parent="XaR2NBmw9nqj3W3LkaDX-65">
          <mxGeometry x="40" width="140" height="30" as="geometry">
            <mxRectangle width="140" height="30" as="alternateBounds" />
          </mxGeometry>
        </mxCell>
        <mxCell id="XaR2NBmw9nqj3W3LkaDX-68" value="" style="shape=tableRow;horizontal=0;startSize=0;swimlaneHead=0;swimlaneBody=0;top=0;left=0;bottom=0;right=0;collapsible=0;dropTarget=0;fillColor=none;points=[[0,0.5],[1,0.5]];portConstraint=eastwest;strokeColor=inherit;fontSize=16;" vertex="1" parent="XaR2NBmw9nqj3W3LkaDX-64">
          <mxGeometry y="60" width="180" height="30" as="geometry" />
        </mxCell>
        <mxCell id="XaR2NBmw9nqj3W3LkaDX-69" value="2" style="shape=partialRectangle;html=1;whiteSpace=wrap;connectable=0;fillColor=none;top=0;left=0;bottom=0;right=0;overflow=hidden;strokeColor=inherit;fontSize=16;" vertex="1" parent="XaR2NBmw9nqj3W3LkaDX-68">
          <mxGeometry width="40" height="30" as="geometry">
            <mxRectangle width="40" height="30" as="alternateBounds" />
          </mxGeometry>
        </mxCell>
        <mxCell id="XaR2NBmw9nqj3W3LkaDX-70" value="id страницы" style="shape=partialRectangle;html=1;whiteSpace=wrap;connectable=0;fillColor=none;top=0;left=0;bottom=0;right=0;align=left;spacingLeft=6;overflow=hidden;strokeColor=inherit;fontSize=16;" vertex="1" parent="XaR2NBmw9nqj3W3LkaDX-68">
          <mxGeometry x="40" width="140" height="30" as="geometry">
            <mxRectangle width="140" height="30" as="alternateBounds" />
          </mxGeometry>
        </mxCell>
        <mxCell id="XaR2NBmw9nqj3W3LkaDX-71" value="" style="shape=tableRow;horizontal=0;startSize=0;swimlaneHead=0;swimlaneBody=0;top=0;left=0;bottom=0;right=0;collapsible=0;dropTarget=0;fillColor=none;points=[[0,0.5],[1,0.5]];portConstraint=eastwest;strokeColor=inherit;fontSize=16;" vertex="1" parent="XaR2NBmw9nqj3W3LkaDX-64">
          <mxGeometry y="90" width="180" height="30" as="geometry" />
        </mxCell>
        <mxCell id="XaR2NBmw9nqj3W3LkaDX-72" value="3" style="shape=partialRectangle;html=1;whiteSpace=wrap;connectable=0;fillColor=none;top=0;left=0;bottom=0;right=0;overflow=hidden;strokeColor=inherit;fontSize=16;" vertex="1" parent="XaR2NBmw9nqj3W3LkaDX-71">
          <mxGeometry width="40" height="30" as="geometry">
            <mxRectangle width="40" height="30" as="alternateBounds" />
          </mxGeometry>
        </mxCell>
        <mxCell id="XaR2NBmw9nqj3W3LkaDX-73" value="id прайс-листа" style="shape=partialRectangle;html=1;whiteSpace=wrap;connectable=0;fillColor=none;top=0;left=0;bottom=0;right=0;align=left;spacingLeft=6;overflow=hidden;strokeColor=inherit;fontSize=16;" vertex="1" parent="XaR2NBmw9nqj3W3LkaDX-71">
          <mxGeometry x="40" width="140" height="30" as="geometry">
            <mxRectangle width="140" height="30" as="alternateBounds" />
          </mxGeometry>
        </mxCell>
        <mxCell id="XaR2NBmw9nqj3W3LkaDX-74" value="Pages" style="shape=table;startSize=30;container=1;collapsible=0;childLayout=tableLayout;fixedRows=1;rowLines=0;fontStyle=0;strokeColor=default;fontSize=16;" vertex="1" parent="1">
          <mxGeometry x="30" y="1640" width="180" height="220" as="geometry" />
        </mxCell>
        <mxCell id="XaR2NBmw9nqj3W3LkaDX-75" value="" style="shape=tableRow;horizontal=0;startSize=0;swimlaneHead=0;swimlaneBody=0;top=0;left=0;bottom=0;right=0;collapsible=0;dropTarget=0;fillColor=none;points=[[0,0.5],[1,0.5]];portConstraint=eastwest;strokeColor=inherit;fontSize=16;" vertex="1" parent="XaR2NBmw9nqj3W3LkaDX-74">
          <mxGeometry y="30" width="180" height="30" as="geometry" />
        </mxCell>
        <mxCell id="XaR2NBmw9nqj3W3LkaDX-76" value="1" style="shape=partialRectangle;html=1;whiteSpace=wrap;connectable=0;fillColor=none;top=0;left=0;bottom=0;right=0;overflow=hidden;pointerEvents=1;strokeColor=inherit;fontSize=16;" vertex="1" parent="XaR2NBmw9nqj3W3LkaDX-75">
          <mxGeometry width="40" height="30" as="geometry">
            <mxRectangle width="40" height="30" as="alternateBounds" />
          </mxGeometry>
        </mxCell>
        <mxCell id="XaR2NBmw9nqj3W3LkaDX-77" value="url" style="shape=partialRectangle;html=1;whiteSpace=wrap;connectable=0;fillColor=none;top=0;left=0;bottom=0;right=0;align=left;spacingLeft=6;overflow=hidden;strokeColor=inherit;fontSize=16;" vertex="1" parent="XaR2NBmw9nqj3W3LkaDX-75">
          <mxGeometry x="40" width="140" height="30" as="geometry">
            <mxRectangle width="140" height="30" as="alternateBounds" />
          </mxGeometry>
        </mxCell>
        <mxCell id="XaR2NBmw9nqj3W3LkaDX-78" value="" style="shape=tableRow;horizontal=0;startSize=0;swimlaneHead=0;swimlaneBody=0;top=0;left=0;bottom=0;right=0;collapsible=0;dropTarget=0;fillColor=none;points=[[0,0.5],[1,0.5]];portConstraint=eastwest;strokeColor=inherit;fontSize=16;" vertex="1" parent="XaR2NBmw9nqj3W3LkaDX-74">
          <mxGeometry y="60" width="180" height="60" as="geometry" />
        </mxCell>
        <mxCell id="XaR2NBmw9nqj3W3LkaDX-79" value="2" style="shape=partialRectangle;html=1;whiteSpace=wrap;connectable=0;fillColor=none;top=0;left=0;bottom=0;right=0;overflow=hidden;strokeColor=inherit;fontSize=16;" vertex="1" parent="XaR2NBmw9nqj3W3LkaDX-78">
          <mxGeometry width="40" height="60" as="geometry">
            <mxRectangle width="40" height="60" as="alternateBounds" />
          </mxGeometry>
        </mxCell>
        <mxCell id="XaR2NBmw9nqj3W3LkaDX-80" value="Название страницы" style="shape=partialRectangle;html=1;whiteSpace=wrap;connectable=0;fillColor=none;top=0;left=0;bottom=0;right=0;align=left;spacingLeft=6;overflow=hidden;strokeColor=inherit;fontSize=16;" vertex="1" parent="XaR2NBmw9nqj3W3LkaDX-78">
          <mxGeometry x="40" width="140" height="60" as="geometry">
            <mxRectangle width="140" height="60" as="alternateBounds" />
          </mxGeometry>
        </mxCell>
        <mxCell id="XaR2NBmw9nqj3W3LkaDX-81" value="" style="shape=tableRow;horizontal=0;startSize=0;swimlaneHead=0;swimlaneBody=0;top=0;left=0;bottom=0;right=0;collapsible=0;dropTarget=0;fillColor=none;points=[[0,0.5],[1,0.5]];portConstraint=eastwest;strokeColor=inherit;fontSize=16;" vertex="1" parent="XaR2NBmw9nqj3W3LkaDX-74">
          <mxGeometry y="120" width="180" height="50" as="geometry" />
        </mxCell>
        <mxCell id="XaR2NBmw9nqj3W3LkaDX-82" value="3" style="shape=partialRectangle;html=1;whiteSpace=wrap;connectable=0;fillColor=none;top=0;left=0;bottom=0;right=0;overflow=hidden;strokeColor=inherit;fontSize=16;" vertex="1" parent="XaR2NBmw9nqj3W3LkaDX-81">
          <mxGeometry width="40" height="50" as="geometry">
            <mxRectangle width="40" height="50" as="alternateBounds" />
          </mxGeometry>
        </mxCell>
        <mxCell id="XaR2NBmw9nqj3W3LkaDX-83" value="Краткое содержание" style="shape=partialRectangle;html=1;whiteSpace=wrap;connectable=0;fillColor=none;top=0;left=0;bottom=0;right=0;align=left;spacingLeft=6;overflow=hidden;strokeColor=inherit;fontSize=16;" vertex="1" parent="XaR2NBmw9nqj3W3LkaDX-81">
          <mxGeometry x="40" width="140" height="50" as="geometry">
            <mxRectangle width="140" height="50" as="alternateBounds" />
          </mxGeometry>
        </mxCell>
        <mxCell id="XaR2NBmw9nqj3W3LkaDX-84" style="shape=tableRow;horizontal=0;startSize=0;swimlaneHead=0;swimlaneBody=0;top=0;left=0;bottom=0;right=0;collapsible=0;dropTarget=0;fillColor=none;points=[[0,0.5],[1,0.5]];portConstraint=eastwest;strokeColor=inherit;fontSize=16;" vertex="1" parent="XaR2NBmw9nqj3W3LkaDX-74">
          <mxGeometry y="170" width="180" height="50" as="geometry" />
        </mxCell>
        <mxCell id="XaR2NBmw9nqj3W3LkaDX-85" value="4" style="shape=partialRectangle;html=1;whiteSpace=wrap;connectable=0;fillColor=none;top=0;left=0;bottom=0;right=0;overflow=hidden;strokeColor=inherit;fontSize=16;" vertex="1" parent="XaR2NBmw9nqj3W3LkaDX-84">
          <mxGeometry width="40" height="50" as="geometry">
            <mxRectangle width="40" height="50" as="alternateBounds" />
          </mxGeometry>
        </mxCell>
        <mxCell id="XaR2NBmw9nqj3W3LkaDX-86" value="Ключевые слова" style="shape=partialRectangle;html=1;whiteSpace=wrap;connectable=0;fillColor=none;top=0;left=0;bottom=0;right=0;align=left;spacingLeft=6;overflow=hidden;strokeColor=inherit;fontSize=16;" vertex="1" parent="XaR2NBmw9nqj3W3LkaDX-84">
          <mxGeometry x="40" width="140" height="50" as="geometry">
            <mxRectangle width="140" height="50" as="alternateBounds" />
          </mxGeometry>
        </mxCell>
        <mxCell id="XaR2NBmw9nqj3W3LkaDX-87" value="Prices" style="shape=table;startSize=30;container=1;collapsible=0;childLayout=tableLayout;fixedRows=1;rowLines=0;fontStyle=0;strokeColor=default;fontSize=16;" vertex="1" parent="1">
          <mxGeometry x="30" y="1880" width="180" height="170" as="geometry" />
        </mxCell>
        <mxCell id="XaR2NBmw9nqj3W3LkaDX-88" value="" style="shape=tableRow;horizontal=0;startSize=0;swimlaneHead=0;swimlaneBody=0;top=0;left=0;bottom=0;right=0;collapsible=0;dropTarget=0;fillColor=none;points=[[0,0.5],[1,0.5]];portConstraint=eastwest;strokeColor=inherit;fontSize=16;" vertex="1" parent="XaR2NBmw9nqj3W3LkaDX-87">
          <mxGeometry y="30" width="180" height="30" as="geometry" />
        </mxCell>
        <mxCell id="XaR2NBmw9nqj3W3LkaDX-89" value="1" style="shape=partialRectangle;html=1;whiteSpace=wrap;connectable=0;fillColor=none;top=0;left=0;bottom=0;right=0;overflow=hidden;pointerEvents=1;strokeColor=inherit;fontSize=16;" vertex="1" parent="XaR2NBmw9nqj3W3LkaDX-88">
          <mxGeometry width="40" height="30" as="geometry">
            <mxRectangle width="40" height="30" as="alternateBounds" />
          </mxGeometry>
        </mxCell>
        <mxCell id="XaR2NBmw9nqj3W3LkaDX-90" value="Курс" style="shape=partialRectangle;html=1;whiteSpace=wrap;connectable=0;fillColor=none;top=0;left=0;bottom=0;right=0;align=left;spacingLeft=6;overflow=hidden;strokeColor=inherit;fontSize=16;" vertex="1" parent="XaR2NBmw9nqj3W3LkaDX-88">
          <mxGeometry x="40" width="140" height="30" as="geometry">
            <mxRectangle width="140" height="30" as="alternateBounds" />
          </mxGeometry>
        </mxCell>
        <mxCell id="XaR2NBmw9nqj3W3LkaDX-91" value="" style="shape=tableRow;horizontal=0;startSize=0;swimlaneHead=0;swimlaneBody=0;top=0;left=0;bottom=0;right=0;collapsible=0;dropTarget=0;fillColor=none;points=[[0,0.5],[1,0.5]];portConstraint=eastwest;strokeColor=inherit;fontSize=16;" vertex="1" parent="XaR2NBmw9nqj3W3LkaDX-87">
          <mxGeometry y="60" width="180" height="60" as="geometry" />
        </mxCell>
        <mxCell id="XaR2NBmw9nqj3W3LkaDX-92" value="2" style="shape=partialRectangle;html=1;whiteSpace=wrap;connectable=0;fillColor=none;top=0;left=0;bottom=0;right=0;overflow=hidden;strokeColor=inherit;fontSize=16;" vertex="1" parent="XaR2NBmw9nqj3W3LkaDX-91">
          <mxGeometry width="40" height="60" as="geometry">
            <mxRectangle width="40" height="60" as="alternateBounds" />
          </mxGeometry>
        </mxCell>
        <mxCell id="XaR2NBmw9nqj3W3LkaDX-93" value="Цена" style="shape=partialRectangle;html=1;whiteSpace=wrap;connectable=0;fillColor=none;top=0;left=0;bottom=0;right=0;align=left;spacingLeft=6;overflow=hidden;strokeColor=inherit;fontSize=16;" vertex="1" parent="XaR2NBmw9nqj3W3LkaDX-91">
          <mxGeometry x="40" width="140" height="60" as="geometry">
            <mxRectangle width="140" height="60" as="alternateBounds" />
          </mxGeometry>
        </mxCell>
        <mxCell id="XaR2NBmw9nqj3W3LkaDX-94" value="" style="shape=tableRow;horizontal=0;startSize=0;swimlaneHead=0;swimlaneBody=0;top=0;left=0;bottom=0;right=0;collapsible=0;dropTarget=0;fillColor=none;points=[[0,0.5],[1,0.5]];portConstraint=eastwest;strokeColor=inherit;fontSize=16;" vertex="1" parent="XaR2NBmw9nqj3W3LkaDX-87">
          <mxGeometry y="120" width="180" height="50" as="geometry" />
        </mxCell>
        <mxCell id="XaR2NBmw9nqj3W3LkaDX-95" value="3" style="shape=partialRectangle;html=1;whiteSpace=wrap;connectable=0;fillColor=none;top=0;left=0;bottom=0;right=0;overflow=hidden;strokeColor=inherit;fontSize=16;" vertex="1" parent="XaR2NBmw9nqj3W3LkaDX-94">
          <mxGeometry width="40" height="50" as="geometry">
            <mxRectangle width="40" height="50" as="alternateBounds" />
          </mxGeometry>
        </mxCell>
        <mxCell id="XaR2NBmw9nqj3W3LkaDX-96" value="Дата установки цены" style="shape=partialRectangle;html=1;whiteSpace=wrap;connectable=0;fillColor=none;top=0;left=0;bottom=0;right=0;align=left;spacingLeft=6;overflow=hidden;strokeColor=inherit;fontSize=16;" vertex="1" parent="XaR2NBmw9nqj3W3LkaDX-94">
          <mxGeometry x="40" width="140" height="50" as="geometry">
            <mxRectangle width="140" height="50" as="alternateBounds" />
          </mxGeometry>
        </mxCell>
        <mxCell id="XaR2NBmw9nqj3W3LkaDX-100" value="Glavs" style="shape=table;startSize=30;container=1;collapsible=0;childLayout=tableLayout;fixedRows=1;rowLines=0;fontStyle=0;strokeColor=default;fontSize=16;" vertex="1" parent="1">
          <mxGeometry x="250" y="1250" width="180" height="420" as="geometry" />
        </mxCell>
        <mxCell id="XaR2NBmw9nqj3W3LkaDX-101" value="" style="shape=tableRow;horizontal=0;startSize=0;swimlaneHead=0;swimlaneBody=0;top=0;left=0;bottom=0;right=0;collapsible=0;dropTarget=0;fillColor=none;points=[[0,0.5],[1,0.5]];portConstraint=eastwest;strokeColor=inherit;fontSize=16;" vertex="1" parent="XaR2NBmw9nqj3W3LkaDX-100">
          <mxGeometry y="30" width="180" height="30" as="geometry" />
        </mxCell>
        <mxCell id="XaR2NBmw9nqj3W3LkaDX-102" value="1" style="shape=partialRectangle;html=1;whiteSpace=wrap;connectable=0;fillColor=none;top=0;left=0;bottom=0;right=0;overflow=hidden;pointerEvents=1;strokeColor=inherit;fontSize=16;" vertex="1" parent="XaR2NBmw9nqj3W3LkaDX-101">
          <mxGeometry width="40" height="30" as="geometry">
            <mxRectangle width="40" height="30" as="alternateBounds" />
          </mxGeometry>
        </mxCell>
        <mxCell id="XaR2NBmw9nqj3W3LkaDX-103" value="Название" style="shape=partialRectangle;html=1;whiteSpace=wrap;connectable=0;fillColor=none;top=0;left=0;bottom=0;right=0;align=left;spacingLeft=6;overflow=hidden;strokeColor=inherit;fontSize=16;" vertex="1" parent="XaR2NBmw9nqj3W3LkaDX-101">
          <mxGeometry x="40" width="140" height="30" as="geometry">
            <mxRectangle width="140" height="30" as="alternateBounds" />
          </mxGeometry>
        </mxCell>
        <mxCell id="XaR2NBmw9nqj3W3LkaDX-104" value="" style="shape=tableRow;horizontal=0;startSize=0;swimlaneHead=0;swimlaneBody=0;top=0;left=0;bottom=0;right=0;collapsible=0;dropTarget=0;fillColor=none;points=[[0,0.5],[1,0.5]];portConstraint=eastwest;strokeColor=inherit;fontSize=16;" vertex="1" parent="XaR2NBmw9nqj3W3LkaDX-100">
          <mxGeometry y="60" width="180" height="60" as="geometry" />
        </mxCell>
        <mxCell id="XaR2NBmw9nqj3W3LkaDX-105" value="2" style="shape=partialRectangle;html=1;whiteSpace=wrap;connectable=0;fillColor=none;top=0;left=0;bottom=0;right=0;overflow=hidden;strokeColor=inherit;fontSize=16;" vertex="1" parent="XaR2NBmw9nqj3W3LkaDX-104">
          <mxGeometry width="40" height="60" as="geometry">
            <mxRectangle width="40" height="60" as="alternateBounds" />
          </mxGeometry>
        </mxCell>
        <mxCell id="XaR2NBmw9nqj3W3LkaDX-106" value="id курса" style="shape=partialRectangle;html=1;whiteSpace=wrap;connectable=0;fillColor=none;top=0;left=0;bottom=0;right=0;align=left;spacingLeft=6;overflow=hidden;strokeColor=inherit;fontSize=16;" vertex="1" parent="XaR2NBmw9nqj3W3LkaDX-104">
          <mxGeometry x="40" width="140" height="60" as="geometry">
            <mxRectangle width="140" height="60" as="alternateBounds" />
          </mxGeometry>
        </mxCell>
        <mxCell id="XaR2NBmw9nqj3W3LkaDX-107" value="" style="shape=tableRow;horizontal=0;startSize=0;swimlaneHead=0;swimlaneBody=0;top=0;left=0;bottom=0;right=0;collapsible=0;dropTarget=0;fillColor=none;points=[[0,0.5],[1,0.5]];portConstraint=eastwest;strokeColor=inherit;fontSize=16;" vertex="1" parent="XaR2NBmw9nqj3W3LkaDX-100">
          <mxGeometry y="120" width="180" height="50" as="geometry" />
        </mxCell>
        <mxCell id="XaR2NBmw9nqj3W3LkaDX-108" value="3" style="shape=partialRectangle;html=1;whiteSpace=wrap;connectable=0;fillColor=none;top=0;left=0;bottom=0;right=0;overflow=hidden;strokeColor=inherit;fontSize=16;" vertex="1" parent="XaR2NBmw9nqj3W3LkaDX-107">
          <mxGeometry width="40" height="50" as="geometry">
            <mxRectangle width="40" height="50" as="alternateBounds" />
          </mxGeometry>
        </mxCell>
        <mxCell id="XaR2NBmw9nqj3W3LkaDX-109" value="id текстового шага" style="shape=partialRectangle;html=1;whiteSpace=wrap;connectable=0;fillColor=none;top=0;left=0;bottom=0;right=0;align=left;spacingLeft=6;overflow=hidden;strokeColor=inherit;fontSize=16;" vertex="1" parent="XaR2NBmw9nqj3W3LkaDX-107">
          <mxGeometry x="40" width="140" height="50" as="geometry">
            <mxRectangle width="140" height="50" as="alternateBounds" />
          </mxGeometry>
        </mxCell>
        <mxCell id="XaR2NBmw9nqj3W3LkaDX-110" style="shape=tableRow;horizontal=0;startSize=0;swimlaneHead=0;swimlaneBody=0;top=0;left=0;bottom=0;right=0;collapsible=0;dropTarget=0;fillColor=none;points=[[0,0.5],[1,0.5]];portConstraint=eastwest;strokeColor=inherit;fontSize=16;" vertex="1" parent="XaR2NBmw9nqj3W3LkaDX-100">
          <mxGeometry y="170" width="180" height="50" as="geometry" />
        </mxCell>
        <mxCell id="XaR2NBmw9nqj3W3LkaDX-111" value="4" style="shape=partialRectangle;html=1;whiteSpace=wrap;connectable=0;fillColor=none;top=0;left=0;bottom=0;right=0;overflow=hidden;strokeColor=inherit;fontSize=16;" vertex="1" parent="XaR2NBmw9nqj3W3LkaDX-110">
          <mxGeometry width="40" height="50" as="geometry">
            <mxRectangle width="40" height="50" as="alternateBounds" />
          </mxGeometry>
        </mxCell>
        <mxCell id="XaR2NBmw9nqj3W3LkaDX-112" value="id тестового шага" style="shape=partialRectangle;html=1;whiteSpace=wrap;connectable=0;fillColor=none;top=0;left=0;bottom=0;right=0;align=left;spacingLeft=6;overflow=hidden;strokeColor=inherit;fontSize=16;" vertex="1" parent="XaR2NBmw9nqj3W3LkaDX-110">
          <mxGeometry x="40" width="140" height="50" as="geometry">
            <mxRectangle width="140" height="50" as="alternateBounds" />
          </mxGeometry>
        </mxCell>
        <mxCell id="XaR2NBmw9nqj3W3LkaDX-113" style="shape=tableRow;horizontal=0;startSize=0;swimlaneHead=0;swimlaneBody=0;top=0;left=0;bottom=0;right=0;collapsible=0;dropTarget=0;fillColor=none;points=[[0,0.5],[1,0.5]];portConstraint=eastwest;strokeColor=inherit;fontSize=16;" vertex="1" parent="XaR2NBmw9nqj3W3LkaDX-100">
          <mxGeometry y="220" width="180" height="50" as="geometry" />
        </mxCell>
        <mxCell id="XaR2NBmw9nqj3W3LkaDX-114" value="5" style="shape=partialRectangle;html=1;whiteSpace=wrap;connectable=0;fillColor=none;top=0;left=0;bottom=0;right=0;overflow=hidden;strokeColor=inherit;fontSize=16;" vertex="1" parent="XaR2NBmw9nqj3W3LkaDX-113">
          <mxGeometry width="40" height="50" as="geometry">
            <mxRectangle width="40" height="50" as="alternateBounds" />
          </mxGeometry>
        </mxCell>
        <mxCell id="XaR2NBmw9nqj3W3LkaDX-115" value="id видео" style="shape=partialRectangle;html=1;whiteSpace=wrap;connectable=0;fillColor=none;top=0;left=0;bottom=0;right=0;align=left;spacingLeft=6;overflow=hidden;strokeColor=inherit;fontSize=16;" vertex="1" parent="XaR2NBmw9nqj3W3LkaDX-113">
          <mxGeometry x="40" width="140" height="50" as="geometry">
            <mxRectangle width="140" height="50" as="alternateBounds" />
          </mxGeometry>
        </mxCell>
        <mxCell id="XaR2NBmw9nqj3W3LkaDX-116" style="shape=tableRow;horizontal=0;startSize=0;swimlaneHead=0;swimlaneBody=0;top=0;left=0;bottom=0;right=0;collapsible=0;dropTarget=0;fillColor=none;points=[[0,0.5],[1,0.5]];portConstraint=eastwest;strokeColor=inherit;fontSize=16;" vertex="1" parent="XaR2NBmw9nqj3W3LkaDX-100">
          <mxGeometry y="270" width="180" height="50" as="geometry" />
        </mxCell>
        <mxCell id="XaR2NBmw9nqj3W3LkaDX-117" value="6" style="shape=partialRectangle;html=1;whiteSpace=wrap;connectable=0;fillColor=none;top=0;left=0;bottom=0;right=0;overflow=hidden;strokeColor=inherit;fontSize=16;" vertex="1" parent="XaR2NBmw9nqj3W3LkaDX-116">
          <mxGeometry width="40" height="50" as="geometry">
            <mxRectangle width="40" height="50" as="alternateBounds" />
          </mxGeometry>
        </mxCell>
        <mxCell id="XaR2NBmw9nqj3W3LkaDX-118" value="id диалога" style="shape=partialRectangle;html=1;whiteSpace=wrap;connectable=0;fillColor=none;top=0;left=0;bottom=0;right=0;align=left;spacingLeft=6;overflow=hidden;strokeColor=inherit;fontSize=16;" vertex="1" parent="XaR2NBmw9nqj3W3LkaDX-116">
          <mxGeometry x="40" width="140" height="50" as="geometry">
            <mxRectangle width="140" height="50" as="alternateBounds" />
          </mxGeometry>
        </mxCell>
        <mxCell id="XaR2NBmw9nqj3W3LkaDX-119" style="shape=tableRow;horizontal=0;startSize=0;swimlaneHead=0;swimlaneBody=0;top=0;left=0;bottom=0;right=0;collapsible=0;dropTarget=0;fillColor=none;points=[[0,0.5],[1,0.5]];portConstraint=eastwest;strokeColor=inherit;fontSize=16;" vertex="1" parent="XaR2NBmw9nqj3W3LkaDX-100">
          <mxGeometry y="320" width="180" height="50" as="geometry" />
        </mxCell>
        <mxCell id="XaR2NBmw9nqj3W3LkaDX-120" value="7" style="shape=partialRectangle;html=1;whiteSpace=wrap;connectable=0;fillColor=none;top=0;left=0;bottom=0;right=0;overflow=hidden;strokeColor=inherit;fontSize=16;" vertex="1" parent="XaR2NBmw9nqj3W3LkaDX-119">
          <mxGeometry width="40" height="50" as="geometry">
            <mxRectangle width="40" height="50" as="alternateBounds" />
          </mxGeometry>
        </mxCell>
        <mxCell id="XaR2NBmw9nqj3W3LkaDX-121" value="входит ли в демо-версию" style="shape=partialRectangle;html=1;whiteSpace=wrap;connectable=0;fillColor=none;top=0;left=0;bottom=0;right=0;align=left;spacingLeft=6;overflow=hidden;strokeColor=inherit;fontSize=16;" vertex="1" parent="XaR2NBmw9nqj3W3LkaDX-119">
          <mxGeometry x="40" width="140" height="50" as="geometry">
            <mxRectangle width="140" height="50" as="alternateBounds" />
          </mxGeometry>
        </mxCell>
        <mxCell id="XaR2NBmw9nqj3W3LkaDX-122" style="shape=tableRow;horizontal=0;startSize=0;swimlaneHead=0;swimlaneBody=0;top=0;left=0;bottom=0;right=0;collapsible=0;dropTarget=0;fillColor=none;points=[[0,0.5],[1,0.5]];portConstraint=eastwest;strokeColor=inherit;fontSize=16;" vertex="1" parent="XaR2NBmw9nqj3W3LkaDX-100">
          <mxGeometry y="370" width="180" height="50" as="geometry" />
        </mxCell>
        <mxCell id="XaR2NBmw9nqj3W3LkaDX-123" value="8" style="shape=partialRectangle;html=1;whiteSpace=wrap;connectable=0;fillColor=none;top=0;left=0;bottom=0;right=0;overflow=hidden;strokeColor=inherit;fontSize=16;" vertex="1" parent="XaR2NBmw9nqj3W3LkaDX-122">
          <mxGeometry width="40" height="50" as="geometry">
            <mxRectangle width="40" height="50" as="alternateBounds" />
          </mxGeometry>
        </mxCell>
        <mxCell id="XaR2NBmw9nqj3W3LkaDX-124" value="входит ли в полную версию" style="shape=partialRectangle;html=1;whiteSpace=wrap;connectable=0;fillColor=none;top=0;left=0;bottom=0;right=0;align=left;spacingLeft=6;overflow=hidden;strokeColor=inherit;fontSize=16;" vertex="1" parent="XaR2NBmw9nqj3W3LkaDX-122">
          <mxGeometry x="40" width="140" height="50" as="geometry">
            <mxRectangle width="140" height="50" as="alternateBounds" />
          </mxGeometry>
        </mxCell>
        <mxCell id="XaR2NBmw9nqj3W3LkaDX-125" value="Users" style="shape=table;startSize=30;container=1;collapsible=0;childLayout=tableLayout;fixedRows=1;rowLines=0;fontStyle=0;strokeColor=default;fontSize=16;" vertex="1" parent="1">
          <mxGeometry x="250" y="1720" width="180" height="130" as="geometry" />
        </mxCell>
        <mxCell id="XaR2NBmw9nqj3W3LkaDX-126" value="" style="shape=tableRow;horizontal=0;startSize=0;swimlaneHead=0;swimlaneBody=0;top=0;left=0;bottom=0;right=0;collapsible=0;dropTarget=0;fillColor=none;points=[[0,0.5],[1,0.5]];portConstraint=eastwest;strokeColor=inherit;fontSize=16;" vertex="1" parent="XaR2NBmw9nqj3W3LkaDX-125">
          <mxGeometry y="30" width="180" height="30" as="geometry" />
        </mxCell>
        <mxCell id="XaR2NBmw9nqj3W3LkaDX-127" value="1" style="shape=partialRectangle;html=1;whiteSpace=wrap;connectable=0;fillColor=none;top=0;left=0;bottom=0;right=0;overflow=hidden;pointerEvents=1;strokeColor=inherit;fontSize=16;" vertex="1" parent="XaR2NBmw9nqj3W3LkaDX-126">
          <mxGeometry width="40" height="30" as="geometry">
            <mxRectangle width="40" height="30" as="alternateBounds" />
          </mxGeometry>
        </mxCell>
        <mxCell id="XaR2NBmw9nqj3W3LkaDX-128" value="id курса" style="shape=partialRectangle;html=1;whiteSpace=wrap;connectable=0;fillColor=none;top=0;left=0;bottom=0;right=0;align=left;spacingLeft=6;overflow=hidden;strokeColor=inherit;fontSize=16;" vertex="1" parent="XaR2NBmw9nqj3W3LkaDX-126">
          <mxGeometry x="40" width="140" height="30" as="geometry">
            <mxRectangle width="140" height="30" as="alternateBounds" />
          </mxGeometry>
        </mxCell>
        <mxCell id="XaR2NBmw9nqj3W3LkaDX-129" value="" style="shape=tableRow;horizontal=0;startSize=0;swimlaneHead=0;swimlaneBody=0;top=0;left=0;bottom=0;right=0;collapsible=0;dropTarget=0;fillColor=none;points=[[0,0.5],[1,0.5]];portConstraint=eastwest;strokeColor=inherit;fontSize=16;" vertex="1" parent="XaR2NBmw9nqj3W3LkaDX-125">
          <mxGeometry y="60" width="180" height="40" as="geometry" />
        </mxCell>
        <mxCell id="XaR2NBmw9nqj3W3LkaDX-130" value="2" style="shape=partialRectangle;html=1;whiteSpace=wrap;connectable=0;fillColor=none;top=0;left=0;bottom=0;right=0;overflow=hidden;strokeColor=inherit;fontSize=16;" vertex="1" parent="XaR2NBmw9nqj3W3LkaDX-129">
          <mxGeometry width="40" height="40" as="geometry">
            <mxRectangle width="40" height="40" as="alternateBounds" />
          </mxGeometry>
        </mxCell>
        <mxCell id="XaR2NBmw9nqj3W3LkaDX-131" value="id студента" style="shape=partialRectangle;html=1;whiteSpace=wrap;connectable=0;fillColor=none;top=0;left=0;bottom=0;right=0;align=left;spacingLeft=6;overflow=hidden;strokeColor=inherit;fontSize=16;" vertex="1" parent="XaR2NBmw9nqj3W3LkaDX-129">
          <mxGeometry x="40" width="140" height="40" as="geometry">
            <mxRectangle width="140" height="40" as="alternateBounds" />
          </mxGeometry>
        </mxCell>
        <mxCell id="XaR2NBmw9nqj3W3LkaDX-132" value="" style="shape=tableRow;horizontal=0;startSize=0;swimlaneHead=0;swimlaneBody=0;top=0;left=0;bottom=0;right=0;collapsible=0;dropTarget=0;fillColor=none;points=[[0,0.5],[1,0.5]];portConstraint=eastwest;strokeColor=inherit;fontSize=16;" vertex="1" parent="XaR2NBmw9nqj3W3LkaDX-125">
          <mxGeometry y="100" width="180" height="30" as="geometry" />
        </mxCell>
        <mxCell id="XaR2NBmw9nqj3W3LkaDX-133" value="" style="shape=partialRectangle;html=1;whiteSpace=wrap;connectable=0;fillColor=none;top=0;left=0;bottom=0;right=0;overflow=hidden;strokeColor=inherit;fontSize=16;" vertex="1" parent="XaR2NBmw9nqj3W3LkaDX-132">
          <mxGeometry width="40" height="30" as="geometry">
            <mxRectangle width="40" height="30" as="alternateBounds" />
          </mxGeometry>
        </mxCell>
        <mxCell id="XaR2NBmw9nqj3W3LkaDX-134" value="" style="shape=partialRectangle;html=1;whiteSpace=wrap;connectable=0;fillColor=none;top=0;left=0;bottom=0;right=0;align=left;spacingLeft=6;overflow=hidden;strokeColor=inherit;fontSize=16;" vertex="1" parent="XaR2NBmw9nqj3W3LkaDX-132">
          <mxGeometry x="40" width="140" height="30" as="geometry">
            <mxRectangle width="140" height="30" as="alternateBounds" />
          </mxGeometry>
        </mxCell>
        <mxCell id="XaR2NBmw9nqj3W3LkaDX-135" value="Texts" style="shape=table;startSize=30;container=1;collapsible=0;childLayout=tableLayout;fixedRows=1;rowLines=0;fontStyle=0;strokeColor=default;fontSize=16;" vertex="1" parent="1">
          <mxGeometry x="480" y="1250" width="180" height="320" as="geometry" />
        </mxCell>
        <mxCell id="XaR2NBmw9nqj3W3LkaDX-136" value="" style="shape=tableRow;horizontal=0;startSize=0;swimlaneHead=0;swimlaneBody=0;top=0;left=0;bottom=0;right=0;collapsible=0;dropTarget=0;fillColor=none;points=[[0,0.5],[1,0.5]];portConstraint=eastwest;strokeColor=inherit;fontSize=16;" vertex="1" parent="XaR2NBmw9nqj3W3LkaDX-135">
          <mxGeometry y="30" width="180" height="30" as="geometry" />
        </mxCell>
        <mxCell id="XaR2NBmw9nqj3W3LkaDX-137" value="1" style="shape=partialRectangle;html=1;whiteSpace=wrap;connectable=0;fillColor=none;top=0;left=0;bottom=0;right=0;overflow=hidden;pointerEvents=1;strokeColor=inherit;fontSize=16;" vertex="1" parent="XaR2NBmw9nqj3W3LkaDX-136">
          <mxGeometry width="40" height="30" as="geometry">
            <mxRectangle width="40" height="30" as="alternateBounds" />
          </mxGeometry>
        </mxCell>
        <mxCell id="XaR2NBmw9nqj3W3LkaDX-138" value="id главы" style="shape=partialRectangle;html=1;whiteSpace=wrap;connectable=0;fillColor=none;top=0;left=0;bottom=0;right=0;align=left;spacingLeft=6;overflow=hidden;strokeColor=inherit;fontSize=16;" vertex="1" parent="XaR2NBmw9nqj3W3LkaDX-136">
          <mxGeometry x="40" width="140" height="30" as="geometry">
            <mxRectangle width="140" height="30" as="alternateBounds" />
          </mxGeometry>
        </mxCell>
        <mxCell id="XaR2NBmw9nqj3W3LkaDX-139" value="" style="shape=tableRow;horizontal=0;startSize=0;swimlaneHead=0;swimlaneBody=0;top=0;left=0;bottom=0;right=0;collapsible=0;dropTarget=0;fillColor=none;points=[[0,0.5],[1,0.5]];portConstraint=eastwest;strokeColor=inherit;fontSize=16;" vertex="1" parent="XaR2NBmw9nqj3W3LkaDX-135">
          <mxGeometry y="60" width="180" height="60" as="geometry" />
        </mxCell>
        <mxCell id="XaR2NBmw9nqj3W3LkaDX-140" value="2" style="shape=partialRectangle;html=1;whiteSpace=wrap;connectable=0;fillColor=none;top=0;left=0;bottom=0;right=0;overflow=hidden;strokeColor=inherit;fontSize=16;" vertex="1" parent="XaR2NBmw9nqj3W3LkaDX-139">
          <mxGeometry width="40" height="60" as="geometry">
            <mxRectangle width="40" height="60" as="alternateBounds" />
          </mxGeometry>
        </mxCell>
        <mxCell id="XaR2NBmw9nqj3W3LkaDX-141" value="Название текста" style="shape=partialRectangle;html=1;whiteSpace=wrap;connectable=0;fillColor=none;top=0;left=0;bottom=0;right=0;align=left;spacingLeft=6;overflow=hidden;strokeColor=inherit;fontSize=16;" vertex="1" parent="XaR2NBmw9nqj3W3LkaDX-139">
          <mxGeometry x="40" width="140" height="60" as="geometry">
            <mxRectangle width="140" height="60" as="alternateBounds" />
          </mxGeometry>
        </mxCell>
        <mxCell id="XaR2NBmw9nqj3W3LkaDX-142" value="" style="shape=tableRow;horizontal=0;startSize=0;swimlaneHead=0;swimlaneBody=0;top=0;left=0;bottom=0;right=0;collapsible=0;dropTarget=0;fillColor=none;points=[[0,0.5],[1,0.5]];portConstraint=eastwest;strokeColor=inherit;fontSize=16;" vertex="1" parent="XaR2NBmw9nqj3W3LkaDX-135">
          <mxGeometry y="120" width="180" height="50" as="geometry" />
        </mxCell>
        <mxCell id="XaR2NBmw9nqj3W3LkaDX-143" value="3" style="shape=partialRectangle;html=1;whiteSpace=wrap;connectable=0;fillColor=none;top=0;left=0;bottom=0;right=0;overflow=hidden;strokeColor=inherit;fontSize=16;" vertex="1" parent="XaR2NBmw9nqj3W3LkaDX-142">
          <mxGeometry width="40" height="50" as="geometry">
            <mxRectangle width="40" height="50" as="alternateBounds" />
          </mxGeometry>
        </mxCell>
        <mxCell id="XaR2NBmw9nqj3W3LkaDX-144" value="Содержание текста" style="shape=partialRectangle;html=1;whiteSpace=wrap;connectable=0;fillColor=none;top=0;left=0;bottom=0;right=0;align=left;spacingLeft=6;overflow=hidden;strokeColor=inherit;fontSize=16;" vertex="1" parent="XaR2NBmw9nqj3W3LkaDX-142">
          <mxGeometry x="40" width="140" height="50" as="geometry">
            <mxRectangle width="140" height="50" as="alternateBounds" />
          </mxGeometry>
        </mxCell>
        <mxCell id="XaR2NBmw9nqj3W3LkaDX-145" style="shape=tableRow;horizontal=0;startSize=0;swimlaneHead=0;swimlaneBody=0;top=0;left=0;bottom=0;right=0;collapsible=0;dropTarget=0;fillColor=none;points=[[0,0.5],[1,0.5]];portConstraint=eastwest;strokeColor=inherit;fontSize=16;" vertex="1" parent="XaR2NBmw9nqj3W3LkaDX-135">
          <mxGeometry y="170" width="180" height="50" as="geometry" />
        </mxCell>
        <mxCell id="XaR2NBmw9nqj3W3LkaDX-146" value="4" style="shape=partialRectangle;html=1;whiteSpace=wrap;connectable=0;fillColor=none;top=0;left=0;bottom=0;right=0;overflow=hidden;strokeColor=inherit;fontSize=16;" vertex="1" parent="XaR2NBmw9nqj3W3LkaDX-145">
          <mxGeometry width="40" height="50" as="geometry">
            <mxRectangle width="40" height="50" as="alternateBounds" />
          </mxGeometry>
        </mxCell>
        <mxCell id="XaR2NBmw9nqj3W3LkaDX-147" value="id страницы" style="shape=partialRectangle;html=1;whiteSpace=wrap;connectable=0;fillColor=none;top=0;left=0;bottom=0;right=0;align=left;spacingLeft=6;overflow=hidden;strokeColor=inherit;fontSize=16;" vertex="1" parent="XaR2NBmw9nqj3W3LkaDX-145">
          <mxGeometry x="40" width="140" height="50" as="geometry">
            <mxRectangle width="140" height="50" as="alternateBounds" />
          </mxGeometry>
        </mxCell>
        <mxCell id="XaR2NBmw9nqj3W3LkaDX-154" style="shape=tableRow;horizontal=0;startSize=0;swimlaneHead=0;swimlaneBody=0;top=0;left=0;bottom=0;right=0;collapsible=0;dropTarget=0;fillColor=none;points=[[0,0.5],[1,0.5]];portConstraint=eastwest;strokeColor=inherit;fontSize=16;" vertex="1" parent="XaR2NBmw9nqj3W3LkaDX-135">
          <mxGeometry y="220" width="180" height="50" as="geometry" />
        </mxCell>
        <mxCell id="XaR2NBmw9nqj3W3LkaDX-155" value="5" style="shape=partialRectangle;html=1;whiteSpace=wrap;connectable=0;fillColor=none;top=0;left=0;bottom=0;right=0;overflow=hidden;strokeColor=inherit;fontSize=16;" vertex="1" parent="XaR2NBmw9nqj3W3LkaDX-154">
          <mxGeometry width="40" height="50" as="geometry">
            <mxRectangle width="40" height="50" as="alternateBounds" />
          </mxGeometry>
        </mxCell>
        <mxCell id="XaR2NBmw9nqj3W3LkaDX-156" value="входит ли в демо-версию" style="shape=partialRectangle;html=1;whiteSpace=wrap;connectable=0;fillColor=none;top=0;left=0;bottom=0;right=0;align=left;spacingLeft=6;overflow=hidden;strokeColor=inherit;fontSize=16;" vertex="1" parent="XaR2NBmw9nqj3W3LkaDX-154">
          <mxGeometry x="40" width="140" height="50" as="geometry">
            <mxRectangle width="140" height="50" as="alternateBounds" />
          </mxGeometry>
        </mxCell>
        <mxCell id="XaR2NBmw9nqj3W3LkaDX-157" style="shape=tableRow;horizontal=0;startSize=0;swimlaneHead=0;swimlaneBody=0;top=0;left=0;bottom=0;right=0;collapsible=0;dropTarget=0;fillColor=none;points=[[0,0.5],[1,0.5]];portConstraint=eastwest;strokeColor=inherit;fontSize=16;" vertex="1" parent="XaR2NBmw9nqj3W3LkaDX-135">
          <mxGeometry y="270" width="180" height="50" as="geometry" />
        </mxCell>
        <mxCell id="XaR2NBmw9nqj3W3LkaDX-158" value="6" style="shape=partialRectangle;html=1;whiteSpace=wrap;connectable=0;fillColor=none;top=0;left=0;bottom=0;right=0;overflow=hidden;strokeColor=inherit;fontSize=16;" vertex="1" parent="XaR2NBmw9nqj3W3LkaDX-157">
          <mxGeometry width="40" height="50" as="geometry">
            <mxRectangle width="40" height="50" as="alternateBounds" />
          </mxGeometry>
        </mxCell>
        <mxCell id="XaR2NBmw9nqj3W3LkaDX-159" value="входит ли в полную версию" style="shape=partialRectangle;html=1;whiteSpace=wrap;connectable=0;fillColor=none;top=0;left=0;bottom=0;right=0;align=left;spacingLeft=6;overflow=hidden;strokeColor=inherit;fontSize=16;" vertex="1" parent="XaR2NBmw9nqj3W3LkaDX-157">
          <mxGeometry x="40" width="140" height="50" as="geometry">
            <mxRectangle width="140" height="50" as="alternateBounds" />
          </mxGeometry>
        </mxCell>
        <mxCell id="XaR2NBmw9nqj3W3LkaDX-160" value="Video" style="shape=table;startSize=30;container=1;collapsible=0;childLayout=tableLayout;fixedRows=1;rowLines=0;fontStyle=0;strokeColor=default;fontSize=16;" vertex="1" parent="1">
          <mxGeometry x="480" y="1600" width="180" height="320" as="geometry" />
        </mxCell>
        <mxCell id="XaR2NBmw9nqj3W3LkaDX-161" value="" style="shape=tableRow;horizontal=0;startSize=0;swimlaneHead=0;swimlaneBody=0;top=0;left=0;bottom=0;right=0;collapsible=0;dropTarget=0;fillColor=none;points=[[0,0.5],[1,0.5]];portConstraint=eastwest;strokeColor=inherit;fontSize=16;" vertex="1" parent="XaR2NBmw9nqj3W3LkaDX-160">
          <mxGeometry y="30" width="180" height="30" as="geometry" />
        </mxCell>
        <mxCell id="XaR2NBmw9nqj3W3LkaDX-162" value="1" style="shape=partialRectangle;html=1;whiteSpace=wrap;connectable=0;fillColor=none;top=0;left=0;bottom=0;right=0;overflow=hidden;pointerEvents=1;strokeColor=inherit;fontSize=16;" vertex="1" parent="XaR2NBmw9nqj3W3LkaDX-161">
          <mxGeometry width="40" height="30" as="geometry">
            <mxRectangle width="40" height="30" as="alternateBounds" />
          </mxGeometry>
        </mxCell>
        <mxCell id="XaR2NBmw9nqj3W3LkaDX-163" value="id главы" style="shape=partialRectangle;html=1;whiteSpace=wrap;connectable=0;fillColor=none;top=0;left=0;bottom=0;right=0;align=left;spacingLeft=6;overflow=hidden;strokeColor=inherit;fontSize=16;" vertex="1" parent="XaR2NBmw9nqj3W3LkaDX-161">
          <mxGeometry x="40" width="140" height="30" as="geometry">
            <mxRectangle width="140" height="30" as="alternateBounds" />
          </mxGeometry>
        </mxCell>
        <mxCell id="XaR2NBmw9nqj3W3LkaDX-164" value="" style="shape=tableRow;horizontal=0;startSize=0;swimlaneHead=0;swimlaneBody=0;top=0;left=0;bottom=0;right=0;collapsible=0;dropTarget=0;fillColor=none;points=[[0,0.5],[1,0.5]];portConstraint=eastwest;strokeColor=inherit;fontSize=16;" vertex="1" parent="XaR2NBmw9nqj3W3LkaDX-160">
          <mxGeometry y="60" width="180" height="60" as="geometry" />
        </mxCell>
        <mxCell id="XaR2NBmw9nqj3W3LkaDX-165" value="2" style="shape=partialRectangle;html=1;whiteSpace=wrap;connectable=0;fillColor=none;top=0;left=0;bottom=0;right=0;overflow=hidden;strokeColor=inherit;fontSize=16;" vertex="1" parent="XaR2NBmw9nqj3W3LkaDX-164">
          <mxGeometry width="40" height="60" as="geometry">
            <mxRectangle width="40" height="60" as="alternateBounds" />
          </mxGeometry>
        </mxCell>
        <mxCell id="XaR2NBmw9nqj3W3LkaDX-166" value="Название видео" style="shape=partialRectangle;html=1;whiteSpace=wrap;connectable=0;fillColor=none;top=0;left=0;bottom=0;right=0;align=left;spacingLeft=6;overflow=hidden;strokeColor=inherit;fontSize=16;" vertex="1" parent="XaR2NBmw9nqj3W3LkaDX-164">
          <mxGeometry x="40" width="140" height="60" as="geometry">
            <mxRectangle width="140" height="60" as="alternateBounds" />
          </mxGeometry>
        </mxCell>
        <mxCell id="XaR2NBmw9nqj3W3LkaDX-167" value="" style="shape=tableRow;horizontal=0;startSize=0;swimlaneHead=0;swimlaneBody=0;top=0;left=0;bottom=0;right=0;collapsible=0;dropTarget=0;fillColor=none;points=[[0,0.5],[1,0.5]];portConstraint=eastwest;strokeColor=inherit;fontSize=16;" vertex="1" parent="XaR2NBmw9nqj3W3LkaDX-160">
          <mxGeometry y="120" width="180" height="50" as="geometry" />
        </mxCell>
        <mxCell id="XaR2NBmw9nqj3W3LkaDX-168" value="3" style="shape=partialRectangle;html=1;whiteSpace=wrap;connectable=0;fillColor=none;top=0;left=0;bottom=0;right=0;overflow=hidden;strokeColor=inherit;fontSize=16;" vertex="1" parent="XaR2NBmw9nqj3W3LkaDX-167">
          <mxGeometry width="40" height="50" as="geometry">
            <mxRectangle width="40" height="50" as="alternateBounds" />
          </mxGeometry>
        </mxCell>
        <mxCell id="XaR2NBmw9nqj3W3LkaDX-169" value="Ссылка на запись" style="shape=partialRectangle;html=1;whiteSpace=wrap;connectable=0;fillColor=none;top=0;left=0;bottom=0;right=0;align=left;spacingLeft=6;overflow=hidden;strokeColor=inherit;fontSize=16;" vertex="1" parent="XaR2NBmw9nqj3W3LkaDX-167">
          <mxGeometry x="40" width="140" height="50" as="geometry">
            <mxRectangle width="140" height="50" as="alternateBounds" />
          </mxGeometry>
        </mxCell>
        <mxCell id="XaR2NBmw9nqj3W3LkaDX-170" style="shape=tableRow;horizontal=0;startSize=0;swimlaneHead=0;swimlaneBody=0;top=0;left=0;bottom=0;right=0;collapsible=0;dropTarget=0;fillColor=none;points=[[0,0.5],[1,0.5]];portConstraint=eastwest;strokeColor=inherit;fontSize=16;" vertex="1" parent="XaR2NBmw9nqj3W3LkaDX-160">
          <mxGeometry y="170" width="180" height="50" as="geometry" />
        </mxCell>
        <mxCell id="XaR2NBmw9nqj3W3LkaDX-171" value="4" style="shape=partialRectangle;html=1;whiteSpace=wrap;connectable=0;fillColor=none;top=0;left=0;bottom=0;right=0;overflow=hidden;strokeColor=inherit;fontSize=16;" vertex="1" parent="XaR2NBmw9nqj3W3LkaDX-170">
          <mxGeometry width="40" height="50" as="geometry">
            <mxRectangle width="40" height="50" as="alternateBounds" />
          </mxGeometry>
        </mxCell>
        <mxCell id="XaR2NBmw9nqj3W3LkaDX-172" value="id страницы" style="shape=partialRectangle;html=1;whiteSpace=wrap;connectable=0;fillColor=none;top=0;left=0;bottom=0;right=0;align=left;spacingLeft=6;overflow=hidden;strokeColor=inherit;fontSize=16;" vertex="1" parent="XaR2NBmw9nqj3W3LkaDX-170">
          <mxGeometry x="40" width="140" height="50" as="geometry">
            <mxRectangle width="140" height="50" as="alternateBounds" />
          </mxGeometry>
        </mxCell>
        <mxCell id="XaR2NBmw9nqj3W3LkaDX-173" style="shape=tableRow;horizontal=0;startSize=0;swimlaneHead=0;swimlaneBody=0;top=0;left=0;bottom=0;right=0;collapsible=0;dropTarget=0;fillColor=none;points=[[0,0.5],[1,0.5]];portConstraint=eastwest;strokeColor=inherit;fontSize=16;" vertex="1" parent="XaR2NBmw9nqj3W3LkaDX-160">
          <mxGeometry y="220" width="180" height="50" as="geometry" />
        </mxCell>
        <mxCell id="XaR2NBmw9nqj3W3LkaDX-174" value="5" style="shape=partialRectangle;html=1;whiteSpace=wrap;connectable=0;fillColor=none;top=0;left=0;bottom=0;right=0;overflow=hidden;strokeColor=inherit;fontSize=16;" vertex="1" parent="XaR2NBmw9nqj3W3LkaDX-173">
          <mxGeometry width="40" height="50" as="geometry">
            <mxRectangle width="40" height="50" as="alternateBounds" />
          </mxGeometry>
        </mxCell>
        <mxCell id="XaR2NBmw9nqj3W3LkaDX-175" value="входит ли в демо-версию" style="shape=partialRectangle;html=1;whiteSpace=wrap;connectable=0;fillColor=none;top=0;left=0;bottom=0;right=0;align=left;spacingLeft=6;overflow=hidden;strokeColor=inherit;fontSize=16;" vertex="1" parent="XaR2NBmw9nqj3W3LkaDX-173">
          <mxGeometry x="40" width="140" height="50" as="geometry">
            <mxRectangle width="140" height="50" as="alternateBounds" />
          </mxGeometry>
        </mxCell>
        <mxCell id="XaR2NBmw9nqj3W3LkaDX-176" style="shape=tableRow;horizontal=0;startSize=0;swimlaneHead=0;swimlaneBody=0;top=0;left=0;bottom=0;right=0;collapsible=0;dropTarget=0;fillColor=none;points=[[0,0.5],[1,0.5]];portConstraint=eastwest;strokeColor=inherit;fontSize=16;" vertex="1" parent="XaR2NBmw9nqj3W3LkaDX-160">
          <mxGeometry y="270" width="180" height="50" as="geometry" />
        </mxCell>
        <mxCell id="XaR2NBmw9nqj3W3LkaDX-177" value="6" style="shape=partialRectangle;html=1;whiteSpace=wrap;connectable=0;fillColor=none;top=0;left=0;bottom=0;right=0;overflow=hidden;strokeColor=inherit;fontSize=16;" vertex="1" parent="XaR2NBmw9nqj3W3LkaDX-176">
          <mxGeometry width="40" height="50" as="geometry">
            <mxRectangle width="40" height="50" as="alternateBounds" />
          </mxGeometry>
        </mxCell>
        <mxCell id="XaR2NBmw9nqj3W3LkaDX-178" value="входит ли в полную версию" style="shape=partialRectangle;html=1;whiteSpace=wrap;connectable=0;fillColor=none;top=0;left=0;bottom=0;right=0;align=left;spacingLeft=6;overflow=hidden;strokeColor=inherit;fontSize=16;" vertex="1" parent="XaR2NBmw9nqj3W3LkaDX-176">
          <mxGeometry x="40" width="140" height="50" as="geometry">
            <mxRectangle width="140" height="50" as="alternateBounds" />
          </mxGeometry>
        </mxCell>
        <mxCell id="XaR2NBmw9nqj3W3LkaDX-179" value="Dialogs" style="shape=table;startSize=30;container=1;collapsible=0;childLayout=tableLayout;fixedRows=1;rowLines=0;fontStyle=0;strokeColor=default;fontSize=16;" vertex="1" parent="1">
          <mxGeometry x="480" y="1940" width="180" height="320" as="geometry" />
        </mxCell>
        <mxCell id="XaR2NBmw9nqj3W3LkaDX-180" value="" style="shape=tableRow;horizontal=0;startSize=0;swimlaneHead=0;swimlaneBody=0;top=0;left=0;bottom=0;right=0;collapsible=0;dropTarget=0;fillColor=none;points=[[0,0.5],[1,0.5]];portConstraint=eastwest;strokeColor=inherit;fontSize=16;" vertex="1" parent="XaR2NBmw9nqj3W3LkaDX-179">
          <mxGeometry y="30" width="180" height="30" as="geometry" />
        </mxCell>
        <mxCell id="XaR2NBmw9nqj3W3LkaDX-181" value="1" style="shape=partialRectangle;html=1;whiteSpace=wrap;connectable=0;fillColor=none;top=0;left=0;bottom=0;right=0;overflow=hidden;pointerEvents=1;strokeColor=inherit;fontSize=16;" vertex="1" parent="XaR2NBmw9nqj3W3LkaDX-180">
          <mxGeometry width="40" height="30" as="geometry">
            <mxRectangle width="40" height="30" as="alternateBounds" />
          </mxGeometry>
        </mxCell>
        <mxCell id="XaR2NBmw9nqj3W3LkaDX-182" value="id главы" style="shape=partialRectangle;html=1;whiteSpace=wrap;connectable=0;fillColor=none;top=0;left=0;bottom=0;right=0;align=left;spacingLeft=6;overflow=hidden;strokeColor=inherit;fontSize=16;" vertex="1" parent="XaR2NBmw9nqj3W3LkaDX-180">
          <mxGeometry x="40" width="140" height="30" as="geometry">
            <mxRectangle width="140" height="30" as="alternateBounds" />
          </mxGeometry>
        </mxCell>
        <mxCell id="XaR2NBmw9nqj3W3LkaDX-183" value="" style="shape=tableRow;horizontal=0;startSize=0;swimlaneHead=0;swimlaneBody=0;top=0;left=0;bottom=0;right=0;collapsible=0;dropTarget=0;fillColor=none;points=[[0,0.5],[1,0.5]];portConstraint=eastwest;strokeColor=inherit;fontSize=16;" vertex="1" parent="XaR2NBmw9nqj3W3LkaDX-179">
          <mxGeometry y="60" width="180" height="60" as="geometry" />
        </mxCell>
        <mxCell id="XaR2NBmw9nqj3W3LkaDX-184" value="2" style="shape=partialRectangle;html=1;whiteSpace=wrap;connectable=0;fillColor=none;top=0;left=0;bottom=0;right=0;overflow=hidden;strokeColor=inherit;fontSize=16;" vertex="1" parent="XaR2NBmw9nqj3W3LkaDX-183">
          <mxGeometry width="40" height="60" as="geometry">
            <mxRectangle width="40" height="60" as="alternateBounds" />
          </mxGeometry>
        </mxCell>
        <mxCell id="XaR2NBmw9nqj3W3LkaDX-185" value="Тип (входящий/исходящий)" style="shape=partialRectangle;html=1;whiteSpace=wrap;connectable=0;fillColor=none;top=0;left=0;bottom=0;right=0;align=left;spacingLeft=6;overflow=hidden;strokeColor=inherit;fontSize=16;" vertex="1" parent="XaR2NBmw9nqj3W3LkaDX-183">
          <mxGeometry x="40" width="140" height="60" as="geometry">
            <mxRectangle width="140" height="60" as="alternateBounds" />
          </mxGeometry>
        </mxCell>
        <mxCell id="XaR2NBmw9nqj3W3LkaDX-186" value="" style="shape=tableRow;horizontal=0;startSize=0;swimlaneHead=0;swimlaneBody=0;top=0;left=0;bottom=0;right=0;collapsible=0;dropTarget=0;fillColor=none;points=[[0,0.5],[1,0.5]];portConstraint=eastwest;strokeColor=inherit;fontSize=16;" vertex="1" parent="XaR2NBmw9nqj3W3LkaDX-179">
          <mxGeometry y="120" width="180" height="50" as="geometry" />
        </mxCell>
        <mxCell id="XaR2NBmw9nqj3W3LkaDX-187" value="3" style="shape=partialRectangle;html=1;whiteSpace=wrap;connectable=0;fillColor=none;top=0;left=0;bottom=0;right=0;overflow=hidden;strokeColor=inherit;fontSize=16;" vertex="1" parent="XaR2NBmw9nqj3W3LkaDX-186">
          <mxGeometry width="40" height="50" as="geometry">
            <mxRectangle width="40" height="50" as="alternateBounds" />
          </mxGeometry>
        </mxCell>
        <mxCell id="XaR2NBmw9nqj3W3LkaDX-188" value="Пользователь" style="shape=partialRectangle;html=1;whiteSpace=wrap;connectable=0;fillColor=none;top=0;left=0;bottom=0;right=0;align=left;spacingLeft=6;overflow=hidden;strokeColor=inherit;fontSize=16;" vertex="1" parent="XaR2NBmw9nqj3W3LkaDX-186">
          <mxGeometry x="40" width="140" height="50" as="geometry">
            <mxRectangle width="140" height="50" as="alternateBounds" />
          </mxGeometry>
        </mxCell>
        <mxCell id="XaR2NBmw9nqj3W3LkaDX-189" style="shape=tableRow;horizontal=0;startSize=0;swimlaneHead=0;swimlaneBody=0;top=0;left=0;bottom=0;right=0;collapsible=0;dropTarget=0;fillColor=none;points=[[0,0.5],[1,0.5]];portConstraint=eastwest;strokeColor=inherit;fontSize=16;" vertex="1" parent="XaR2NBmw9nqj3W3LkaDX-179">
          <mxGeometry y="170" width="180" height="50" as="geometry" />
        </mxCell>
        <mxCell id="XaR2NBmw9nqj3W3LkaDX-190" value="4" style="shape=partialRectangle;html=1;whiteSpace=wrap;connectable=0;fillColor=none;top=0;left=0;bottom=0;right=0;overflow=hidden;strokeColor=inherit;fontSize=16;" vertex="1" parent="XaR2NBmw9nqj3W3LkaDX-189">
          <mxGeometry width="40" height="50" as="geometry">
            <mxRectangle width="40" height="50" as="alternateBounds" />
          </mxGeometry>
        </mxCell>
        <mxCell id="XaR2NBmw9nqj3W3LkaDX-191" value="id страницы" style="shape=partialRectangle;html=1;whiteSpace=wrap;connectable=0;fillColor=none;top=0;left=0;bottom=0;right=0;align=left;spacingLeft=6;overflow=hidden;strokeColor=inherit;fontSize=16;" vertex="1" parent="XaR2NBmw9nqj3W3LkaDX-189">
          <mxGeometry x="40" width="140" height="50" as="geometry">
            <mxRectangle width="140" height="50" as="alternateBounds" />
          </mxGeometry>
        </mxCell>
        <mxCell id="XaR2NBmw9nqj3W3LkaDX-192" style="shape=tableRow;horizontal=0;startSize=0;swimlaneHead=0;swimlaneBody=0;top=0;left=0;bottom=0;right=0;collapsible=0;dropTarget=0;fillColor=none;points=[[0,0.5],[1,0.5]];portConstraint=eastwest;strokeColor=inherit;fontSize=16;" vertex="1" parent="XaR2NBmw9nqj3W3LkaDX-179">
          <mxGeometry y="220" width="180" height="50" as="geometry" />
        </mxCell>
        <mxCell id="XaR2NBmw9nqj3W3LkaDX-193" value="5" style="shape=partialRectangle;html=1;whiteSpace=wrap;connectable=0;fillColor=none;top=0;left=0;bottom=0;right=0;overflow=hidden;strokeColor=inherit;fontSize=16;" vertex="1" parent="XaR2NBmw9nqj3W3LkaDX-192">
          <mxGeometry width="40" height="50" as="geometry">
            <mxRectangle width="40" height="50" as="alternateBounds" />
          </mxGeometry>
        </mxCell>
        <mxCell id="XaR2NBmw9nqj3W3LkaDX-194" value="входит ли в демо-версию" style="shape=partialRectangle;html=1;whiteSpace=wrap;connectable=0;fillColor=none;top=0;left=0;bottom=0;right=0;align=left;spacingLeft=6;overflow=hidden;strokeColor=inherit;fontSize=16;" vertex="1" parent="XaR2NBmw9nqj3W3LkaDX-192">
          <mxGeometry x="40" width="140" height="50" as="geometry">
            <mxRectangle width="140" height="50" as="alternateBounds" />
          </mxGeometry>
        </mxCell>
        <mxCell id="XaR2NBmw9nqj3W3LkaDX-195" style="shape=tableRow;horizontal=0;startSize=0;swimlaneHead=0;swimlaneBody=0;top=0;left=0;bottom=0;right=0;collapsible=0;dropTarget=0;fillColor=none;points=[[0,0.5],[1,0.5]];portConstraint=eastwest;strokeColor=inherit;fontSize=16;" vertex="1" parent="XaR2NBmw9nqj3W3LkaDX-179">
          <mxGeometry y="270" width="180" height="50" as="geometry" />
        </mxCell>
        <mxCell id="XaR2NBmw9nqj3W3LkaDX-196" value="6" style="shape=partialRectangle;html=1;whiteSpace=wrap;connectable=0;fillColor=none;top=0;left=0;bottom=0;right=0;overflow=hidden;strokeColor=inherit;fontSize=16;" vertex="1" parent="XaR2NBmw9nqj3W3LkaDX-195">
          <mxGeometry width="40" height="50" as="geometry">
            <mxRectangle width="40" height="50" as="alternateBounds" />
          </mxGeometry>
        </mxCell>
        <mxCell id="XaR2NBmw9nqj3W3LkaDX-197" value="входит ли в полную версию" style="shape=partialRectangle;html=1;whiteSpace=wrap;connectable=0;fillColor=none;top=0;left=0;bottom=0;right=0;align=left;spacingLeft=6;overflow=hidden;strokeColor=inherit;fontSize=16;" vertex="1" parent="XaR2NBmw9nqj3W3LkaDX-195">
          <mxGeometry x="40" width="140" height="50" as="geometry">
            <mxRectangle width="140" height="50" as="alternateBounds" />
          </mxGeometry>
        </mxCell>
        <mxCell id="XaR2NBmw9nqj3W3LkaDX-198" value="Tests" style="shape=table;startSize=30;container=1;collapsible=0;childLayout=tableLayout;fixedRows=1;rowLines=0;fontStyle=0;strokeColor=default;fontSize=16;" vertex="1" parent="1">
          <mxGeometry x="250" y="1880" width="180" height="370" as="geometry" />
        </mxCell>
        <mxCell id="XaR2NBmw9nqj3W3LkaDX-199" value="" style="shape=tableRow;horizontal=0;startSize=0;swimlaneHead=0;swimlaneBody=0;top=0;left=0;bottom=0;right=0;collapsible=0;dropTarget=0;fillColor=none;points=[[0,0.5],[1,0.5]];portConstraint=eastwest;strokeColor=inherit;fontSize=16;" vertex="1" parent="XaR2NBmw9nqj3W3LkaDX-198">
          <mxGeometry y="30" width="180" height="30" as="geometry" />
        </mxCell>
        <mxCell id="XaR2NBmw9nqj3W3LkaDX-200" value="1" style="shape=partialRectangle;html=1;whiteSpace=wrap;connectable=0;fillColor=none;top=0;left=0;bottom=0;right=0;overflow=hidden;pointerEvents=1;strokeColor=inherit;fontSize=16;" vertex="1" parent="XaR2NBmw9nqj3W3LkaDX-199">
          <mxGeometry width="40" height="30" as="geometry">
            <mxRectangle width="40" height="30" as="alternateBounds" />
          </mxGeometry>
        </mxCell>
        <mxCell id="XaR2NBmw9nqj3W3LkaDX-201" value="id главы" style="shape=partialRectangle;html=1;whiteSpace=wrap;connectable=0;fillColor=none;top=0;left=0;bottom=0;right=0;align=left;spacingLeft=6;overflow=hidden;strokeColor=inherit;fontSize=16;" vertex="1" parent="XaR2NBmw9nqj3W3LkaDX-199">
          <mxGeometry x="40" width="140" height="30" as="geometry">
            <mxRectangle width="140" height="30" as="alternateBounds" />
          </mxGeometry>
        </mxCell>
        <mxCell id="XaR2NBmw9nqj3W3LkaDX-202" value="" style="shape=tableRow;horizontal=0;startSize=0;swimlaneHead=0;swimlaneBody=0;top=0;left=0;bottom=0;right=0;collapsible=0;dropTarget=0;fillColor=none;points=[[0,0.5],[1,0.5]];portConstraint=eastwest;strokeColor=inherit;fontSize=16;" vertex="1" parent="XaR2NBmw9nqj3W3LkaDX-198">
          <mxGeometry y="60" width="180" height="60" as="geometry" />
        </mxCell>
        <mxCell id="XaR2NBmw9nqj3W3LkaDX-203" value="2" style="shape=partialRectangle;html=1;whiteSpace=wrap;connectable=0;fillColor=none;top=0;left=0;bottom=0;right=0;overflow=hidden;strokeColor=inherit;fontSize=16;" vertex="1" parent="XaR2NBmw9nqj3W3LkaDX-202">
          <mxGeometry width="40" height="60" as="geometry">
            <mxRectangle width="40" height="60" as="alternateBounds" />
          </mxGeometry>
        </mxCell>
        <mxCell id="XaR2NBmw9nqj3W3LkaDX-204" value="Название теста" style="shape=partialRectangle;html=1;whiteSpace=wrap;connectable=0;fillColor=none;top=0;left=0;bottom=0;right=0;align=left;spacingLeft=6;overflow=hidden;strokeColor=inherit;fontSize=16;" vertex="1" parent="XaR2NBmw9nqj3W3LkaDX-202">
          <mxGeometry x="40" width="140" height="60" as="geometry">
            <mxRectangle width="140" height="60" as="alternateBounds" />
          </mxGeometry>
        </mxCell>
        <mxCell id="XaR2NBmw9nqj3W3LkaDX-205" value="" style="shape=tableRow;horizontal=0;startSize=0;swimlaneHead=0;swimlaneBody=0;top=0;left=0;bottom=0;right=0;collapsible=0;dropTarget=0;fillColor=none;points=[[0,0.5],[1,0.5]];portConstraint=eastwest;strokeColor=inherit;fontSize=16;" vertex="1" parent="XaR2NBmw9nqj3W3LkaDX-198">
          <mxGeometry y="120" width="180" height="50" as="geometry" />
        </mxCell>
        <mxCell id="XaR2NBmw9nqj3W3LkaDX-206" value="3" style="shape=partialRectangle;html=1;whiteSpace=wrap;connectable=0;fillColor=none;top=0;left=0;bottom=0;right=0;overflow=hidden;strokeColor=inherit;fontSize=16;" vertex="1" parent="XaR2NBmw9nqj3W3LkaDX-205">
          <mxGeometry width="40" height="50" as="geometry">
            <mxRectangle width="40" height="50" as="alternateBounds" />
          </mxGeometry>
        </mxCell>
        <mxCell id="XaR2NBmw9nqj3W3LkaDX-207" value="Вопрос" style="shape=partialRectangle;html=1;whiteSpace=wrap;connectable=0;fillColor=none;top=0;left=0;bottom=0;right=0;align=left;spacingLeft=6;overflow=hidden;strokeColor=inherit;fontSize=16;" vertex="1" parent="XaR2NBmw9nqj3W3LkaDX-205">
          <mxGeometry x="40" width="140" height="50" as="geometry">
            <mxRectangle width="140" height="50" as="alternateBounds" />
          </mxGeometry>
        </mxCell>
        <mxCell id="XaR2NBmw9nqj3W3LkaDX-208" style="shape=tableRow;horizontal=0;startSize=0;swimlaneHead=0;swimlaneBody=0;top=0;left=0;bottom=0;right=0;collapsible=0;dropTarget=0;fillColor=none;points=[[0,0.5],[1,0.5]];portConstraint=eastwest;strokeColor=inherit;fontSize=16;" vertex="1" parent="XaR2NBmw9nqj3W3LkaDX-198">
          <mxGeometry y="170" width="180" height="50" as="geometry" />
        </mxCell>
        <mxCell id="XaR2NBmw9nqj3W3LkaDX-209" value="4" style="shape=partialRectangle;html=1;whiteSpace=wrap;connectable=0;fillColor=none;top=0;left=0;bottom=0;right=0;overflow=hidden;strokeColor=inherit;fontSize=16;" vertex="1" parent="XaR2NBmw9nqj3W3LkaDX-208">
          <mxGeometry width="40" height="50" as="geometry">
            <mxRectangle width="40" height="50" as="alternateBounds" />
          </mxGeometry>
        </mxCell>
        <mxCell id="XaR2NBmw9nqj3W3LkaDX-210" value="id ответа" style="shape=partialRectangle;html=1;whiteSpace=wrap;connectable=0;fillColor=none;top=0;left=0;bottom=0;right=0;align=left;spacingLeft=6;overflow=hidden;strokeColor=inherit;fontSize=16;" vertex="1" parent="XaR2NBmw9nqj3W3LkaDX-208">
          <mxGeometry x="40" width="140" height="50" as="geometry">
            <mxRectangle width="140" height="50" as="alternateBounds" />
          </mxGeometry>
        </mxCell>
        <mxCell id="XaR2NBmw9nqj3W3LkaDX-211" style="shape=tableRow;horizontal=0;startSize=0;swimlaneHead=0;swimlaneBody=0;top=0;left=0;bottom=0;right=0;collapsible=0;dropTarget=0;fillColor=none;points=[[0,0.5],[1,0.5]];portConstraint=eastwest;strokeColor=inherit;fontSize=16;" vertex="1" parent="XaR2NBmw9nqj3W3LkaDX-198">
          <mxGeometry y="220" width="180" height="50" as="geometry" />
        </mxCell>
        <mxCell id="XaR2NBmw9nqj3W3LkaDX-212" value="5" style="shape=partialRectangle;html=1;whiteSpace=wrap;connectable=0;fillColor=none;top=0;left=0;bottom=0;right=0;overflow=hidden;strokeColor=inherit;fontSize=16;" vertex="1" parent="XaR2NBmw9nqj3W3LkaDX-211">
          <mxGeometry width="40" height="50" as="geometry">
            <mxRectangle width="40" height="50" as="alternateBounds" />
          </mxGeometry>
        </mxCell>
        <mxCell id="XaR2NBmw9nqj3W3LkaDX-213" value="id страницы" style="shape=partialRectangle;html=1;whiteSpace=wrap;connectable=0;fillColor=none;top=0;left=0;bottom=0;right=0;align=left;spacingLeft=6;overflow=hidden;strokeColor=inherit;fontSize=16;" vertex="1" parent="XaR2NBmw9nqj3W3LkaDX-211">
          <mxGeometry x="40" width="140" height="50" as="geometry">
            <mxRectangle width="140" height="50" as="alternateBounds" />
          </mxGeometry>
        </mxCell>
        <mxCell id="XaR2NBmw9nqj3W3LkaDX-214" style="shape=tableRow;horizontal=0;startSize=0;swimlaneHead=0;swimlaneBody=0;top=0;left=0;bottom=0;right=0;collapsible=0;dropTarget=0;fillColor=none;points=[[0,0.5],[1,0.5]];portConstraint=eastwest;strokeColor=inherit;fontSize=16;" vertex="1" parent="XaR2NBmw9nqj3W3LkaDX-198">
          <mxGeometry y="270" width="180" height="50" as="geometry" />
        </mxCell>
        <mxCell id="XaR2NBmw9nqj3W3LkaDX-215" value="6" style="shape=partialRectangle;html=1;whiteSpace=wrap;connectable=0;fillColor=none;top=0;left=0;bottom=0;right=0;overflow=hidden;strokeColor=inherit;fontSize=16;" vertex="1" parent="XaR2NBmw9nqj3W3LkaDX-214">
          <mxGeometry width="40" height="50" as="geometry">
            <mxRectangle width="40" height="50" as="alternateBounds" />
          </mxGeometry>
        </mxCell>
        <mxCell id="XaR2NBmw9nqj3W3LkaDX-216" value="входит ли в demo-версию" style="shape=partialRectangle;html=1;whiteSpace=wrap;connectable=0;fillColor=none;top=0;left=0;bottom=0;right=0;align=left;spacingLeft=6;overflow=hidden;strokeColor=inherit;fontSize=16;" vertex="1" parent="XaR2NBmw9nqj3W3LkaDX-214">
          <mxGeometry x="40" width="140" height="50" as="geometry">
            <mxRectangle width="140" height="50" as="alternateBounds" />
          </mxGeometry>
        </mxCell>
        <mxCell id="XaR2NBmw9nqj3W3LkaDX-217" style="shape=tableRow;horizontal=0;startSize=0;swimlaneHead=0;swimlaneBody=0;top=0;left=0;bottom=0;right=0;collapsible=0;dropTarget=0;fillColor=none;points=[[0,0.5],[1,0.5]];portConstraint=eastwest;strokeColor=inherit;fontSize=16;" vertex="1" parent="XaR2NBmw9nqj3W3LkaDX-198">
          <mxGeometry y="320" width="180" height="50" as="geometry" />
        </mxCell>
        <mxCell id="XaR2NBmw9nqj3W3LkaDX-218" value="7" style="shape=partialRectangle;html=1;whiteSpace=wrap;connectable=0;fillColor=none;top=0;left=0;bottom=0;right=0;overflow=hidden;strokeColor=inherit;fontSize=16;" vertex="1" parent="XaR2NBmw9nqj3W3LkaDX-217">
          <mxGeometry width="40" height="50" as="geometry">
            <mxRectangle width="40" height="50" as="alternateBounds" />
          </mxGeometry>
        </mxCell>
        <mxCell id="XaR2NBmw9nqj3W3LkaDX-219" style="shape=partialRectangle;html=1;whiteSpace=wrap;connectable=0;fillColor=none;top=0;left=0;bottom=0;right=0;align=left;spacingLeft=6;overflow=hidden;strokeColor=inherit;fontSize=16;" vertex="1" parent="XaR2NBmw9nqj3W3LkaDX-217">
          <mxGeometry x="40" width="140" height="50" as="geometry">
            <mxRectangle width="140" height="50" as="alternateBounds" />
          </mxGeometry>
        </mxCell>
        <mxCell id="XaR2NBmw9nqj3W3LkaDX-220" value="входит ли в полную версию" style="shape=partialRectangle;html=1;whiteSpace=wrap;connectable=0;fillColor=none;top=0;left=0;bottom=0;right=0;align=left;spacingLeft=6;overflow=hidden;strokeColor=inherit;fontSize=16;" vertex="1" parent="1">
          <mxGeometry x="290" y="2200" width="140" height="50" as="geometry">
            <mxRectangle width="140" height="50" as="alternateBounds" />
          </mxGeometry>
        </mxCell>
        <mxCell id="XaR2NBmw9nqj3W3LkaDX-222" value="Answers" style="shape=table;startSize=30;container=1;collapsible=0;childLayout=tableLayout;fixedRows=1;rowLines=0;fontStyle=0;strokeColor=default;fontSize=16;" vertex="1" parent="1">
          <mxGeometry x="30" y="2080" width="180" height="250" as="geometry" />
        </mxCell>
        <mxCell id="XaR2NBmw9nqj3W3LkaDX-223" value="" style="shape=tableRow;horizontal=0;startSize=0;swimlaneHead=0;swimlaneBody=0;top=0;left=0;bottom=0;right=0;collapsible=0;dropTarget=0;fillColor=none;points=[[0,0.5],[1,0.5]];portConstraint=eastwest;strokeColor=inherit;fontSize=16;" vertex="1" parent="XaR2NBmw9nqj3W3LkaDX-222">
          <mxGeometry y="30" width="180" height="30" as="geometry" />
        </mxCell>
        <mxCell id="XaR2NBmw9nqj3W3LkaDX-224" value="1" style="shape=partialRectangle;html=1;whiteSpace=wrap;connectable=0;fillColor=none;top=0;left=0;bottom=0;right=0;overflow=hidden;pointerEvents=1;strokeColor=inherit;fontSize=16;" vertex="1" parent="XaR2NBmw9nqj3W3LkaDX-223">
          <mxGeometry width="40" height="30" as="geometry">
            <mxRectangle width="40" height="30" as="alternateBounds" />
          </mxGeometry>
        </mxCell>
        <mxCell id="XaR2NBmw9nqj3W3LkaDX-225" value="id теста" style="shape=partialRectangle;html=1;whiteSpace=wrap;connectable=0;fillColor=none;top=0;left=0;bottom=0;right=0;align=left;spacingLeft=6;overflow=hidden;strokeColor=inherit;fontSize=16;" vertex="1" parent="XaR2NBmw9nqj3W3LkaDX-223">
          <mxGeometry x="40" width="140" height="30" as="geometry">
            <mxRectangle width="140" height="30" as="alternateBounds" />
          </mxGeometry>
        </mxCell>
        <mxCell id="XaR2NBmw9nqj3W3LkaDX-226" value="" style="shape=tableRow;horizontal=0;startSize=0;swimlaneHead=0;swimlaneBody=0;top=0;left=0;bottom=0;right=0;collapsible=0;dropTarget=0;fillColor=none;points=[[0,0.5],[1,0.5]];portConstraint=eastwest;strokeColor=inherit;fontSize=16;" vertex="1" parent="XaR2NBmw9nqj3W3LkaDX-222">
          <mxGeometry y="60" width="180" height="40" as="geometry" />
        </mxCell>
        <mxCell id="XaR2NBmw9nqj3W3LkaDX-227" value="2" style="shape=partialRectangle;html=1;whiteSpace=wrap;connectable=0;fillColor=none;top=0;left=0;bottom=0;right=0;overflow=hidden;strokeColor=inherit;fontSize=16;" vertex="1" parent="XaR2NBmw9nqj3W3LkaDX-226">
          <mxGeometry width="40" height="40" as="geometry">
            <mxRectangle width="40" height="40" as="alternateBounds" />
          </mxGeometry>
        </mxCell>
        <mxCell id="XaR2NBmw9nqj3W3LkaDX-228" value="id страницы" style="shape=partialRectangle;html=1;whiteSpace=wrap;connectable=0;fillColor=none;top=0;left=0;bottom=0;right=0;align=left;spacingLeft=6;overflow=hidden;strokeColor=inherit;fontSize=16;" vertex="1" parent="XaR2NBmw9nqj3W3LkaDX-226">
          <mxGeometry x="40" width="140" height="40" as="geometry">
            <mxRectangle width="140" height="40" as="alternateBounds" />
          </mxGeometry>
        </mxCell>
        <mxCell id="XaR2NBmw9nqj3W3LkaDX-229" value="" style="shape=tableRow;horizontal=0;startSize=0;swimlaneHead=0;swimlaneBody=0;top=0;left=0;bottom=0;right=0;collapsible=0;dropTarget=0;fillColor=none;points=[[0,0.5],[1,0.5]];portConstraint=eastwest;strokeColor=inherit;fontSize=16;" vertex="1" parent="XaR2NBmw9nqj3W3LkaDX-222">
          <mxGeometry y="100" width="180" height="50" as="geometry" />
        </mxCell>
        <mxCell id="XaR2NBmw9nqj3W3LkaDX-230" value="3" style="shape=partialRectangle;html=1;whiteSpace=wrap;connectable=0;fillColor=none;top=0;left=0;bottom=0;right=0;overflow=hidden;strokeColor=inherit;fontSize=16;" vertex="1" parent="XaR2NBmw9nqj3W3LkaDX-229">
          <mxGeometry width="40" height="50" as="geometry">
            <mxRectangle width="40" height="50" as="alternateBounds" />
          </mxGeometry>
        </mxCell>
        <mxCell id="XaR2NBmw9nqj3W3LkaDX-231" value="id студента" style="shape=partialRectangle;html=1;whiteSpace=wrap;connectable=0;fillColor=none;top=0;left=0;bottom=0;right=0;align=left;spacingLeft=6;overflow=hidden;strokeColor=inherit;fontSize=16;" vertex="1" parent="XaR2NBmw9nqj3W3LkaDX-229">
          <mxGeometry x="40" width="140" height="50" as="geometry">
            <mxRectangle width="140" height="50" as="alternateBounds" />
          </mxGeometry>
        </mxCell>
        <mxCell id="XaR2NBmw9nqj3W3LkaDX-232" style="shape=tableRow;horizontal=0;startSize=0;swimlaneHead=0;swimlaneBody=0;top=0;left=0;bottom=0;right=0;collapsible=0;dropTarget=0;fillColor=none;points=[[0,0.5],[1,0.5]];portConstraint=eastwest;strokeColor=inherit;fontSize=16;" vertex="1" parent="XaR2NBmw9nqj3W3LkaDX-222">
          <mxGeometry y="150" width="180" height="50" as="geometry" />
        </mxCell>
        <mxCell id="XaR2NBmw9nqj3W3LkaDX-233" value="4" style="shape=partialRectangle;html=1;whiteSpace=wrap;connectable=0;fillColor=none;top=0;left=0;bottom=0;right=0;overflow=hidden;strokeColor=inherit;fontSize=16;" vertex="1" parent="XaR2NBmw9nqj3W3LkaDX-232">
          <mxGeometry width="40" height="50" as="geometry">
            <mxRectangle width="40" height="50" as="alternateBounds" />
          </mxGeometry>
        </mxCell>
        <mxCell id="XaR2NBmw9nqj3W3LkaDX-234" value="Ответ" style="shape=partialRectangle;html=1;whiteSpace=wrap;connectable=0;fillColor=none;top=0;left=0;bottom=0;right=0;align=left;spacingLeft=6;overflow=hidden;strokeColor=inherit;fontSize=16;" vertex="1" parent="XaR2NBmw9nqj3W3LkaDX-232">
          <mxGeometry x="40" width="140" height="50" as="geometry">
            <mxRectangle width="140" height="50" as="alternateBounds" />
          </mxGeometry>
        </mxCell>
        <mxCell id="XaR2NBmw9nqj3W3LkaDX-235" style="shape=tableRow;horizontal=0;startSize=0;swimlaneHead=0;swimlaneBody=0;top=0;left=0;bottom=0;right=0;collapsible=0;dropTarget=0;fillColor=none;points=[[0,0.5],[1,0.5]];portConstraint=eastwest;strokeColor=inherit;fontSize=16;" vertex="1" parent="XaR2NBmw9nqj3W3LkaDX-222">
          <mxGeometry y="200" width="180" height="50" as="geometry" />
        </mxCell>
        <mxCell id="XaR2NBmw9nqj3W3LkaDX-236" value="5" style="shape=partialRectangle;html=1;whiteSpace=wrap;connectable=0;fillColor=none;top=0;left=0;bottom=0;right=0;overflow=hidden;strokeColor=inherit;fontSize=16;" vertex="1" parent="XaR2NBmw9nqj3W3LkaDX-235">
          <mxGeometry width="40" height="50" as="geometry">
            <mxRectangle width="40" height="50" as="alternateBounds" />
          </mxGeometry>
        </mxCell>
        <mxCell id="XaR2NBmw9nqj3W3LkaDX-237" value="Верный ли ответ" style="shape=partialRectangle;html=1;whiteSpace=wrap;connectable=0;fillColor=none;top=0;left=0;bottom=0;right=0;align=left;spacingLeft=6;overflow=hidden;strokeColor=inherit;fontSize=16;" vertex="1" parent="XaR2NBmw9nqj3W3LkaDX-235">
          <mxGeometry x="40" width="140" height="50" as="geometry">
            <mxRectangle width="140" height="50" as="alternateBounds" />
          </mxGeometry>
        </mxCell>
      </root>
    </mxGraphModel>
  </diagram>
</mxfile>
